<?xml version="1.0"?>
<svg xmlns="http://www.w3.org/2000/svg" height="512px" viewBox="-5 0 488 488.53619" width="512px" class="hovered-paths"><g><path d="m376.589844 250.121094c-26.378906-4.066406-53.363282.777344-76.683594 13.757812-13.636719-9.503906-29.859375-14.59375-46.480469-14.582031h-46.800781c-1.921875.046875-3.707031.996094-4.828125 2.558594l-34.621094 46.917969-33.207031-46.859376c-1.117188-1.605468-2.933594-2.578124-4.890625-2.617187h-46.773437c-23.207032.0625-45.308594 9.910156-60.871094 27.125-15.367188 17.210937-22.90625 40.023437-20.824219 63v70.894531c.0625 3.335938 2.800781 6.003906 6.136719 5.980469h241.308594c3.621093 8.203125 8.117187 15.992187 13.414062 23.230469 18.894531 25.792968 47.328125 42.949218 78.957031 47.636718 6.007813.910157 12.078125 1.371094 18.15625 1.371094 58.429688 0 109.847657-42.597656 118.894531-101.871094 4.753907-31.488281-3.207031-63.578124-22.128906-89.191406-18.925781-25.613281-47.257812-42.648437-78.757812-47.351562zm-166.933594 11.175781h10.742188l4.167968 64.367187-48.050781-19.453124zm-94.363281 0h10.6875l31.835937 44.957031-46.949218 19.257813zm-102.648438 77.226563c-1.984375-19.710938 4.453125-39.339844 17.71875-54.046876 13.269531-14.710937 32.132813-23.128906 51.941407-23.179687h20.960937l-5.03125 73.089844c-.144531 2.085937.789063 4.101562 2.476563 5.339843 1.675781 1.222657 3.867187 1.492188 5.792968.710938l54.101563-22.234375v86.09375h-148v-65.167969c.023437-.203125.035156-.40625.039062-.605468zm159.960938 65.773437v-86.539063l56.324219 22.726563c1.910156.773437 4.085937.507813 5.757812-.699219 1.679688-1.257812 2.609375-3.28125 2.472656-5.371094l-4.738281-73.117187h21c12.414063 0 24.597656 3.332031 35.285156 9.648437-42.335937 29.988282-60.554687 83.816407-45.136719 133.351563zm293.007812-19.441406c-8.140625 53.347656-54.429687 91.683593-107.035156 91.683593-5.476563-.003906-10.945313-.414062-16.355469-1.238281-28.347656-4.226562-53.851562-19.554687-70.886718-42.601562-17.035157-23.050781-24.207032-51.925781-19.929688-80.265625 8.140625-53.347656 54.429688-91.683594 107.035156-91.683594 5.476563 0 10.941406.414062 16.355469 1.234375 28.347656 4.226563 53.851563 19.554687 70.886719 42.605469 17.035156 23.046875 24.207031 51.925781 19.929687 80.265625zm0 0" data-original="#000000" class="hovered-path active-path" data-old_color="#000000" fill="#FFCE00"/><path d="m433.039062 391.296875h-9.433593v-22.234375c-.128907-3.3125-2.917969-5.890625-6.230469-5.765625h-52.769531v-13h23.027343c3.335938-.074219 5.996094-2.816406 5.972657-6.152344v-32.746093c.023437-3.328126-2.644531-6.054688-5.972657-6.101563h-58.25c-1.578124.03125-3.078124.695313-4.164062 1.839844-1.085938 1.148437-1.667969 2.683593-1.613281 4.261719v32.75c-.054688 1.582031.523437 3.121093 1.609375 4.277343 1.085937 1.152344 2.585937 1.828125 4.167968 1.871094h23.222657v13h-52.964844c-1.570313-.054687-3.097656.527344-4.234375 1.613281-1.132812 1.085938-1.785156 2.582032-1.800781 4.152344v22.234375h-9.628907c-3.3125 0-6.371093 2.535156-6.371093 5.847656v28.753907c.144531 3.460937 2.910156 6.238281 6.371093 6.398437h30.75c3.316407 0 5.878907-3.089844 5.878907-6.398437v-28.75c.023437-1.5625-.589844-3.070313-1.699219-4.171876-1.109375-1.105468-2.617188-1.710937-4.179688-1.679687h-9.121093v-16h47v16h-9.472657c-3.3125 0-5.527343 2.535156-5.527343 5.847656v28.753907c0 3.3125 2.214843 6.398437 5.527343 6.398437h30.75c3.3125 0 5.722657-3.089844 5.722657-6.398437v-28.75c.058593-1.546876-.523438-3.050782-1.605469-4.15625-1.082031-1.105469-2.570312-1.71875-4.117188-1.695313h-9.277343v-16h47v16h-9.316407c-1.542968-.023437-3.027343.59375-4.101562 1.699219-1.074219 1.105468-1.648438 2.605468-1.582031 4.148437v28.753907c0 3.3125 2.371093 6.398437 5.683593 6.398437h30.75c3.3125 0 5.566407-3.089844 5.566407-6.398437v-28.75c.09375-1.53125-.453125-3.027344-1.507813-4.136719-1.058594-1.109375-2.527344-1.730469-4.058594-1.714844zm-97.433593-74h46v21h-46zm-27 103h-19v-17h19zm59 0h-18v-17h18zm59 0h-18v-17h18zm0 0" data-original="#000000" class="hovered-path active-path" data-old_color="#000000" fill="#FFCE00"/><path d="m92.167969 196.339844 72.398437 47.390625c1.980469 1.296875 4.539063 1.304687 6.53125.027343l73.765625-47.394531c1.734375-1.113281 2.777344-3.042969 2.753907-5.105469l-1.363282-132.789062c0-1.03125-.027344-2.070312-.078125-3.085938-.910156-17.378906-9.621093-33.414062-23.707031-43.628906-14.59375-10.78125-33.277344-14.386718-50.835938-9.816406l-40.058593 10.359375h-13.789063c-16.378906 0-30.179687 13.441406-30.179687 29.8125v36.457031l1.605469 112.824219c.121093 2.03125 1.222656 3.878906 2.957031 4.949219zm142.136719-132.558594.6875 66.703125-8.625 6.457031c-2.945313 2.195313-6.523438 3.375-10.199219 3.359375h-14.542969c-4.734375.019531-9.257812-1.949219-12.46875-5.421875-5.484375-5.953125-13.210938-9.335937-21.304688-9.339844-8.09375 0-15.820312 3.382813-21.308593 9.332032-3.210938 3.472656-7.730469 5.441406-12.457031 5.425781h-14.550782c-3.675781.015625-7.253906-1.164063-10.199218-3.359375l-8.617188-6.488281-.382812-31.351563c5.769531-25.445312 24.367187-23.882812 56.746093-18.957031 26.480469 4.035156 58.378907 8.898437 77.222657-16.359375zm-66.421876 167.777344-66.46875-43.511719-.511718-42.375 1.191406.832031c5.03125 3.773438 11.152344 5.804688 17.441406 5.792969h14.550782c8.09375.015625 15.824218-3.363281 21.308593-9.3125 3.214844-3.472656 7.730469-5.445313 12.460938-5.445313 4.730469-.003906 9.25 1.96875 12.464843 5.4375 5.484376 5.949219 13.207032 9.328126 21.300782 9.320313h14.546875c6.289062.011719 12.410156-2.019531 17.441406-5.789063l1.535156-1.128906.4375 42.667969zm-50.097656-207.261719h14.554688c.507812.019531 1.015625-.023437 1.511718-.132813l40.800782-10.582031c14.058594-3.671875 29.023437-.792969 40.714844 7.832031 7.527343 5.484376 13.21875 13.117188 16.324218 21.894532-12.722656 34.125-42.164062 29.683594-73.046875 24.976562-21.21875-3.234375-44.039062-6.777344-59.039062 6.386719v-32.5625c0-9.753906 8.421875-17.8125 18.179687-17.8125zm0 0" data-original="#000000" class="hovered-path active-path" data-old_color="#000000" fill="#FFCE00"/><path d="m181.605469 175.296875h-28c-3.3125 0-6 2.6875-6 6s2.6875 6 6 6h28c3.3125 0 6-2.6875 6-6s-2.6875-6-6-6zm0 0" data-original="#000000" class="hovered-path active-path" data-old_color="#000000" fill="#FFCE00"/></g> </svg>
