<?xml version="1.0"?>
<svg xmlns="http://www.w3.org/2000/svg" xmlns:xlink="http://www.w3.org/1999/xlink" xmlns:svgjs="http://svgjs.com/svgjs" version="1.1" width="512" height="512" x="0" y="0" viewBox="0 0 511 511.99998" style="enable-background:new 0 0 512 512" xml:space="preserve" class=""><g><path xmlns="http://www.w3.org/2000/svg" d="m68.765625 230.398438c-2.261719 0-4.433594-.898438-6.03125-2.5l-34.132813-34.132813c-3.273437-3.390625-3.179687-8.792969.207032-12.066406 3.308594-3.191407 8.550781-3.191407 11.859375 0l28.097656 28.101562 28.101563-28.101562c3.390624-3.273438 8.792968-3.179688 12.066406.210937 3.195312 3.304688 3.195312 8.550782 0 11.855469l-34.132813 34.132813c-1.601562 1.601562-3.769531 2.5-6.035156 2.5zm0 0" fill="#65dbea" data-original="#69b0bb" style="" class=""/><path xmlns="http://www.w3.org/2000/svg" d="m358.898438 204.800781h136.535156v110.933594c0 9.425781-7.640625 17.066406-17.066406 17.066406h-102.398438c-9.425781 0-17.070312-7.640625-17.070312-17.066406zm0 0" fill="#ee3138" data-original="#d9d9d9" style="" class=""/><path xmlns="http://www.w3.org/2000/svg" d="m179.699219 68.265625h153.601562v68.269531c0 14.136719-11.460937 25.597656-25.601562 25.597656h-110.933594c-9.425781 0-17.066406-7.640624-17.066406-17.066406zm0 0" fill="#65dbea" data-original="#cdcdcd" style="" class=""/><path xmlns="http://www.w3.org/2000/svg" d="m179.699219 8.53125h119.46875v153.601562h-102.402344c-9.425781 0-17.066406-7.640624-17.066406-17.066406zm0 0" fill="#ee3138" data-original="#d9d9d9" style="" class=""/><path xmlns="http://www.w3.org/2000/svg" d="m205.300781 230.398438h68.265625v68.269531h-68.265625zm0 0" fill="#ffd700" data-original="#ea9d2d" style="" class=""/><path xmlns="http://www.w3.org/2000/svg" d="m9.035156 221.867188h110.929688v110.933593h-110.929688zm0 0" fill="#ee3138" data-original="#b3e4e8" style="" class=""/><path xmlns="http://www.w3.org/2000/svg" d="m205.300781 230.398438h68.265625v34.136718h-68.265625zm0 0" fill="#ffd700" data-original="#fbb540" style="" class=""/><g xmlns="http://www.w3.org/2000/svg" fill="#99d8aa"><path d="m230.898438 187.734375h17.066406v17.066406h-17.066406zm0 0" fill="#99d8aa" data-original="#99d8aa" style="" class=""/><path d="m230.898438 324.265625h17.066406v17.066406h-17.066406zm0 0" fill="#99d8aa" data-original="#99d8aa" style="" class=""/><path d="m299.167969 247.464844h17.066406v17.070312h-17.066406zm0 0" fill="#99d8aa" data-original="#99d8aa" style="" class=""/><path d="m162.632812 247.464844h17.066407v17.070312h-17.066407zm0 0" fill="#99d8aa" data-original="#99d8aa" style="" class=""/></g><path xmlns="http://www.w3.org/2000/svg" d="m9.035156 298.667969h110.929688v34.132812h-110.929688zm0 0" fill="#65dbea" data-original="#ea6b65" style="" class=""/><path xmlns="http://www.w3.org/2000/svg" d="m205.300781 93.867188h68.265625v17.066406h-68.265625zm0 0" fill="#65dbea" data-original="#cdcdcd" style="" class=""/><path xmlns="http://www.w3.org/2000/svg" d="m205.300781 119.464844h68.265625v17.070312h-68.265625zm0 0" fill="#65dbea" data-original="#cdcdcd" style="" class=""/><path xmlns="http://www.w3.org/2000/svg" d="m205.300781 34.132812h68.265625v42.667969h-68.265625zm0 0" fill="#ffd700" data-original="#fbb540" style="" class=""/><path xmlns="http://www.w3.org/2000/svg" d="m452.765625 264.535156h17.066406v17.066406h-17.066406zm0 0" fill="#f7ba61" data-original="#f7ba61" style="" class=""/><path xmlns="http://www.w3.org/2000/svg" d="m418.632812 264.535156h17.066407v17.066406h-17.066407zm0 0" fill="#e78244" data-original="#e78244" style="" class=""/><path xmlns="http://www.w3.org/2000/svg" d="m384.5 264.535156h17.066406v17.066406h-17.066406zm0 0" fill="#65dbea" data-original="#ea6b65" style="" class=""/><path xmlns="http://www.w3.org/2000/svg" d="m358.898438 204.800781h136.535156v34.132813h-136.535156zm0 0" fill="#65dbea" data-original="#69b0bb" style="" class=""/><path xmlns="http://www.w3.org/2000/svg" d="m222.367188 435.199219h34.132812c14.136719 0 25.601562 11.460937 25.601562 25.601562v42.667969h-85.335937v-42.667969c0-14.140625 11.460937-25.601562 25.601563-25.601562zm0 0" fill="#ffd700" data-original="#ffb1b5" style="" class=""/><path xmlns="http://www.w3.org/2000/svg" d="m273.566406 401.066406c0 18.851563-15.28125 34.132813-34.132812 34.132813-18.851563 0-34.132813-15.28125-34.132813-34.132813 0-18.851562 15.28125-34.132812 34.132813-34.132812 18.851562 0 34.132812 15.28125 34.132812 34.132812zm0 0" fill="#ffd700" data-original="#ffb1b5" style="" class=""/><path xmlns="http://www.w3.org/2000/svg" d="m230.898438 426.667969h17.066406v17.066406h-17.066406zm0 0" fill="#ffd700" data-original="#ffb1b5" style="" class=""/><path xmlns="http://www.w3.org/2000/svg" d="m282.101562 273.066406h-85.335937v-51.199218h85.335937zm-68.269531-17.066406h51.203125v-17.066406h-51.203125zm0 0" fill="#000000" data-original="#000000" style="" class=""/><path xmlns="http://www.w3.org/2000/svg" d="m282.101562 307.199219h-85.335937v-85.332031h85.335937zm-68.269531-17.066407h51.203125v-51.199218h-51.203125zm0 0" fill="#000000" data-original="#000000" style="" class=""/><path xmlns="http://www.w3.org/2000/svg" d="m230.898438 187.734375h17.066406v17.066406h-17.066406zm0 0" fill="#000000" data-original="#000000" style="" class=""/><path xmlns="http://www.w3.org/2000/svg" d="m230.898438 324.265625h17.066406v17.066406h-17.066406zm0 0" fill="#000000" data-original="#000000" style="" class=""/><path xmlns="http://www.w3.org/2000/svg" d="m299.167969 247.464844h17.066406v17.070312h-17.066406zm0 0" fill="#000000" data-original="#000000" style="" class=""/><path xmlns="http://www.w3.org/2000/svg" d="m162.632812 247.464844h17.066407v17.070312h-17.066407zm0 0" fill="#000000" data-original="#000000" style="" class=""/><path xmlns="http://www.w3.org/2000/svg" d="m68.765625 230.398438c-2.183594 0-4.367187-.832032-6.03125-2.5l-34.132813-34.132813c-3.335937-3.332031-3.335937-8.730469 0-12.066406 3.332032-3.332031 8.730469-3.332031 12.066407 0l28.097656 28.101562 28.101563-28.101562c3.332031-3.332031 8.734374-3.332031 12.066406 0 3.332031 3.335937 3.332031 8.734375 0 12.066406l-34.132813 34.132813c-1.667969 1.667968-3.851562 2.5-6.035156 2.5zm0 0" fill="#000000" data-original="#000000" style="" class=""/><path xmlns="http://www.w3.org/2000/svg" d="m128.5 307.199219h-128v-93.867188h128zm-110.933594-17.066407h93.867188v-59.734374h-93.867188zm0 0" fill="#000000" data-original="#000000" style="" class=""/><path xmlns="http://www.w3.org/2000/svg" d="m128.5 341.332031h-128v-128h128zm-110.933594-17.066406h93.867188v-93.867187h-93.867188zm0 0" fill="#000000" data-original="#000000" style="" class=""/><path xmlns="http://www.w3.org/2000/svg" d="m205.300781 93.867188h68.265625v17.066406h-68.265625zm0 0" fill="#000000" data-original="#000000" style="" class=""/><path xmlns="http://www.w3.org/2000/svg" d="m205.300781 119.464844h68.265625v17.070312h-68.265625zm0 0" fill="#000000" data-original="#000000" style="" class=""/><path xmlns="http://www.w3.org/2000/svg" d="m273.566406 85.332031h-68.265625v-51.199219h68.265625zm-51.199218-17.066406h34.132812v-17.066406h-34.132812zm0 0" fill="#000000" data-original="#000000" style="" class=""/><path xmlns="http://www.w3.org/2000/svg" d="m307.699219 170.667969h-110.933594c-14.117187 0-25.597656-11.484375-25.597656-25.601563v-76.800781h17.066406v76.800781c0 4.703125 3.828125 8.535156 8.53125 8.535156h110.933594c9.410156 0 17.066406-7.65625 17.066406-17.070312v-59.730469h-26.308594v-17.066406h43.375v76.796875c0 18.824219-15.308593 34.136719-34.132812 34.136719zm0 0" fill="#000000" data-original="#000000" style="" class=""/><path xmlns="http://www.w3.org/2000/svg" d="m307.699219 170.667969h-110.933594c-14.117187 0-25.597656-11.484375-25.597656-25.601563v-145.066406h136.53125zm-119.464844-153.601563v128c0 4.703125 3.828125 8.535156 8.53125 8.535156h93.867187v-136.535156zm0 0" fill="#000000" data-original="#000000" style="" class=""/><path xmlns="http://www.w3.org/2000/svg" d="m452.765625 264.535156h17.066406v17.066406h-17.066406zm0 0" fill="#000000" data-original="#000000" style="" class=""/><path xmlns="http://www.w3.org/2000/svg" d="m418.632812 264.535156h17.066407v17.066406h-17.066407zm0 0" fill="#000000" data-original="#000000" style="" class=""/><path xmlns="http://www.w3.org/2000/svg" d="m384.5 264.535156h17.066406v17.066406h-17.066406zm0 0" fill="#000000" data-original="#000000" style="" class=""/><path xmlns="http://www.w3.org/2000/svg" d="m478.367188 341.332031h-102.402344c-14.113282 0-25.597656-11.480469-25.597656-25.597656v-119.46875h153.601562v119.46875c0 14.117187-11.484375 25.597656-25.601562 25.597656zm-110.933594-128v102.402344c0 4.707031 3.824218 8.53125 8.53125 8.53125h102.402344c4.707031 0 8.53125-3.824219 8.53125-8.53125v-102.402344zm0 0" fill="#000000" data-original="#000000" style="" class=""/><path xmlns="http://www.w3.org/2000/svg" d="m503.96875 247.464844h-153.601562v-51.199219h153.601562zm-136.535156-17.066406h119.464844v-17.066407h-119.464844zm0 0" fill="#000000" data-original="#000000" style="" class=""/><path xmlns="http://www.w3.org/2000/svg" d="m290.632812 512h-102.398437v-51.199219c0-18.824219 15.3125-34.132812 34.132813-34.132812h34.132812c18.824219 0 34.132812 15.308593 34.132812 34.132812zm-85.332031-17.066406h68.265625v-34.132813c0-9.410156-7.65625-17.066406-17.066406-17.066406h-34.132812c-9.414063 0-17.066407 7.65625-17.066407 17.066406zm0 0" fill="#000000" data-original="#000000" style="" class=""/><path xmlns="http://www.w3.org/2000/svg" d="m239.433594 443.734375c-23.523438 0-42.667969-19.144531-42.667969-42.667969 0-23.523437 19.144531-42.667968 42.667969-42.667968 23.523437 0 42.667968 19.144531 42.667968 42.667968 0 23.523438-19.144531 42.667969-42.667968 42.667969zm0-68.269531c-14.117188 0-25.601563 11.484375-25.601563 25.601562 0 14.117188 11.484375 25.601563 25.601563 25.601563 14.117187 0 25.601562-11.484375 25.601562-25.601563 0-14.117187-11.484375-25.601562-25.601562-25.601562zm0 0" fill="#000000" data-original="#000000" style="" class=""/></g></svg>
