<?xml version="1.0"?>
<svg xmlns="http://www.w3.org/2000/svg" xmlns:xlink="http://www.w3.org/1999/xlink" xmlns:svgjs="http://svgjs.com/svgjs" version="1.1" width="512" height="512" x="0" y="0" viewBox="0 0 512 512" style="enable-background:new 0 0 512 512" xml:space="preserve" class=""><g><g xmlns="http://www.w3.org/2000/svg"><g><g><path d="m414.96 352-.16.61-2.28-.61z" fill="#ee3138" data-original="#d8d7da" style="" class=""/><path d="m494.52 55.1-40.97 152.9-18.04 67.33-46.37-12.42 14.72-54.91 32.9-122.82 11.39-42.5a20 20 0 0 1 24.5-14.14l7.72 2.07a19.991 19.991 0 0 1 14.15 24.49z" fill="#fefeff" data-original="#787680" style="" class=""/><path d="m414.96 352-.16.61-2.28-.61z" fill="#ee3138" data-original="#d8d7da" style="" class=""/><path d="m382.744 34.908h24v136h-24z" fill="#fafafa" transform="matrix(-.966 -.259 .259 -.966 749.403 304.476)" data-original="#2d2d30" style="" class=""/></g><path d="m435.51 275.33-20.55 76.67h-2.44l-44.08-11.82 2.5-9.33 18.2-67.94z" fill="#ffd700" data-original="#ffda44" style="" class=""/><path d="m414.8 352.61-15.53 57.95a19.985 19.985 0 0 1 -24.49 14.14l-3.87-1.03-3.86-1.04a19.992 19.992 0 0 1 -14.14-24.49l12.36-46.14 3.17-11.82 44.08 11.82z" fill="#fefeff" data-original="#787680" style="" class=""/><path d="m453.55 208-18.04 67.33-20.55 76.67h81.04v-144zm-327.35 4.15 6.84 4.37-17.25-8.29c-.17-.08-.33-.15-.49-.23h-99.3v144h349.27l3.17-11.82 2.5-9.33 18.2-67.94 14.72-54.91h-284.16z" fill="#ee3138" data-original="#d8d7da" style="" class=""/><path d="m496 352v128h-480v-128h349.27l-12.36 46.14a19.992 19.992 0 0 0 14.14 24.49l3.86 1.04 3.87 1.03a19.985 19.985 0 0 0 24.49-14.14l15.53-57.95-2.28-.61z" fill="#ffd700" data-original="#cca400" style="" class=""/><path d="m48 240h168v48h-168z" fill="#ffd700" data-original="#ffda44" style="" class=""/><circle cx="152" cy="128" fill="#ffd700" r="88" data-original="#cca400" style="" class=""/><circle cx="152" cy="128" fill="#ffd700" r="64" data-original="#ffda44" style="" class=""/></g><g><path d="m496 200h-32.02l38.27-142.83a27.993 27.993 0 0 0 -19.81-34.29l-7.72-2.07a28.046 28.046 0 0 0 -34.3 19.8l-9.31 34.77-7.73-2.07 8.28-30.91a8.009 8.009 0 0 0 -5.65-9.8l-23.19-6.21a8 8 0 0 0 -9.79 5.66l-35.2 131.36a7.989 7.989 0 0 0 5.65 9.8l23.18 6.21a7.759 7.759 0 0 0 2.07.28 8.013 8.013 0 0 0 7.73-5.93l22.78-85 7.73 2.07-29.25 109.16h-182.3a96 96 0 1 0 -126.84 0h-72.58a8 8 0 0 0 -8 8v272a8 8 0 0 0 8 8h480a8 8 0 0 0 8-8v-272a8 8 0 0 0 -8-8zm-90.14-123.11-.01.01-22.77 85-7.73-2.07 31.06-115.91 7.73 2.07zm5.73 133.18 32.9-122.82 11.39-42.5a12.016 12.016 0 0 1 14.7-8.48l7.72 2.07a11.975 11.975 0 0 1 8.49 14.69l-40.97 152.89v.01l-15.97 59.6-30.91-8.28zm14.12 70.92-16.57 61.82-30.9-8.28 16.56-61.82zm-20.71 77.27-13.46 50.23a11.968 11.968 0 0 1 -14.69 8.48l-7.73-2.07a12 12 0 0 1 -8.48-14.69l12.36-46.14 1.09-4.09zm-333-230.26a80 80 0 1 1 80 80 80.093 80.093 0 0 1 -80-80zm-48 88h89.66a95.872 95.872 0 0 0 76.68 0h203.09l-34.3 128h-335.13zm464 256h-464v-112h330.84l-9.66 36.07a28.018 28.018 0 0 0 16.01 32.98l-4.22 15.73a8 8 0 0 0 5.66 9.8 8.248 8.248 0 0 0 2.08.27 8 8 0 0 0 7.72-5.93l4.22-15.74a27.064 27.064 0 0 0 3.36.21 28 28 0 0 0 26.99-20.76l14.1-52.63h66.9zm0-128h-62.61l34.3-128h28.31z" fill="#000000" data-original="#000000" style="" class=""/><path d="m332.646 440.337c-14.39-.539-29.055-1.341-43.238-2.117-14.264-.781-29.014-1.587-43.556-2.131-12.02-.451-26.4-2.118-30.97-11.089a36.452 36.452 0 0 1 -2.4-7.662c-1.316-5.484-2.808-11.7-7.723-16.74-10.346-10.617-27.67-7.256-37.787 1.947-5.641 5.131-9.388 11.28-13.012 17.227-1.75 2.871-3.4 5.582-5.21 8.088-4.08 5.657-10.628 11.315-16.774 10.225-5.364-.949-9.3-7.161-10.685-12.53-1.414-5.477-1.367-11.515-1.318-17.908.017-2.161.034-4.395-.008-6.635-.277-15.034-6.589-25.468-16.885-27.909-10.347-2.454-18.819 4.282-24.292 9.562a197.447 197.447 0 0 0 -42.4 59.681 8 8 0 1 0 14.53 6.7 181.514 181.514 0 0 1 38.982-54.865c5.618-5.42 8.358-5.779 9.492-5.51 2.488.59 4.457 6.022 4.579 12.636.038 2.031.022 4.064.006 6.217-.056 7.141-.112 14.525 1.825 22.03 3.311 12.825 12.492 22.358 23.39 24.287 11.41 2.015 23.574-4.195 32.536-16.619 2.172-3.01 4.066-6.118 5.9-9.123 3.176-5.211 6.176-10.134 10.117-13.718 4.439-4.039 12.2-6.062 15.563-2.615 1.841 1.889 2.666 5.327 3.621 9.306a49.507 49.507 0 0 0 3.7 11.189c9.418 18.5 34.092 19.422 44.629 19.816 14.4.539 29.084 1.342 43.281 2.119 14.251.78 28.986 1.585 43.513 2.129.1 0 .2.006.3.006a8 8 0 0 0 .294-15.994z" fill="#000000" data-original="#000000" style="" class=""/><path d="m416 440h-16a8 8 0 0 0 0 16h16a8 8 0 0 0 0-16z" fill="#000000" data-original="#000000" style="" class=""/><path d="m48 296h168a8 8 0 0 0 8-8v-48a8 8 0 0 0 -8-8h-168a8 8 0 0 0 -8 8v48a8 8 0 0 0 8 8zm8-48h152v32h-152z" fill="#000000" data-original="#000000" style="" class=""/><path d="m248 248h112a8 8 0 0 0 0-16h-112a8 8 0 0 0 0 16z" fill="#000000" data-original="#000000" style="" class=""/><path d="m248 272h112a8 8 0 0 0 0-16h-112a8 8 0 0 0 0 16z" fill="#000000" data-original="#000000" style="" class=""/><path d="m248 296h48a8 8 0 0 0 0-16h-48a8 8 0 0 0 0 16z" fill="#000000" data-original="#000000" style="" class=""/><path d="m328 280h-8a8 8 0 0 0 0 16h8a8 8 0 0 0 0-16z" fill="#000000" data-original="#000000" style="" class=""/><path d="m152 200a72 72 0 1 0 -72-72 72.081 72.081 0 0 0 72 72zm0-128a56 56 0 1 1 -56 56 56.064 56.064 0 0 1 56-56z" fill="#000000" data-original="#000000" style="" class=""/><path d="m136 144a8 8 0 0 0 0 16h8a8 8 0 0 0 16 0h8a8 8 0 0 0 8-8v-24a8 8 0 0 0 -8-8h-24v-8h24a8 8 0 0 0 0-16h-8a8 8 0 0 0 -16 0h-8a8 8 0 0 0 -8 8v24a8 8 0 0 0 8 8h24v8z" fill="#000000" data-original="#000000" style="" class=""/></g></g></g></svg>
