<?xml version="1.0"?>
<svg xmlns="http://www.w3.org/2000/svg" xmlns:xlink="http://www.w3.org/1999/xlink" xmlns:svgjs="http://svgjs.com/svgjs" version="1.1" width="512" height="512" x="0" y="0" viewBox="0 0 492 492" style="enable-background:new 0 0 512 512" xml:space="preserve" class=""><g><path xmlns="http://www.w3.org/2000/svg" d="m383.261719 228.25c5.519531 0 10 4.476562 10 10v237.75c0 5.523438-4.480469 10-10 10h-160c-5.523438 0-10-4.476562-10-10v-237.75c0-5.523438 4.476562-10 10-10zm-12.5 226.25v-30h-30v30zm0-52.5v-30h-30v30zm0-52.5v-30h-30v30zm0-63.75v-35h-135v35zm-54.75 168.75v-30h-30v30zm0-52.5v-30h-30v30zm0-52.5v-30h-30v30zm-50.25 105v-30h-30v30zm0-52.5v-30h-30v30zm0-52.5v-30h-30v30zm0 0" fill="#ee3138" data-original="#e48e66" style="" class=""/><path xmlns="http://www.w3.org/2000/svg" d="m340.761719 424.5h30v30h-30zm0 0" fill="#6fe3ff" data-original="#6fe3ff" style="" class=""/><path xmlns="http://www.w3.org/2000/svg" d="m340.761719 372h30v30h-30zm0 0" fill="#6fe3ff" data-original="#6fe3ff" style="" class=""/><path xmlns="http://www.w3.org/2000/svg" d="m340.761719 319.5h30v30h-30zm0 0" fill="#6fe3ff" data-original="#6fe3ff" style="" class=""/><path xmlns="http://www.w3.org/2000/svg" d="m235.761719 250.75h135v35h-135zm0 0" fill="#6fe3ff" data-original="#6fe3ff" style="" class=""/><path xmlns="http://www.w3.org/2000/svg" d="m305.671875 6c20.527344 0 37.167969 16.640625 37.167969 37.171875v97.917969h-74.328125v-97.917969c-.003907-20.527344 16.632812-37.167969 37.160156-37.171875zm0 0" fill="#e2d574" data-original="#e2d574" style="" class=""/><path xmlns="http://www.w3.org/2000/svg" d="m286.011719 424.5h30v30h-30zm0 0" fill="#6fe3ff" data-original="#6fe3ff" style="" class=""/><path xmlns="http://www.w3.org/2000/svg" d="m286.011719 372h30v30h-30zm0 0" fill="#6fe3ff" data-original="#6fe3ff" style="" class=""/><path xmlns="http://www.w3.org/2000/svg" d="m286.011719 319.5h30v30h-30zm0 0" fill="#6fe3ff" data-original="#6fe3ff" style="" class=""/><path xmlns="http://www.w3.org/2000/svg" d="m235.761719 424.5h30v30h-30zm0 0" fill="#6fe3ff" data-original="#6fe3ff" style="" class=""/><path xmlns="http://www.w3.org/2000/svg" d="m235.761719 372h30v30h-30zm0 0" fill="#6fe3ff" data-original="#6fe3ff" style="" class=""/><path xmlns="http://www.w3.org/2000/svg" d="m235.761719 319.5h30v30h-30zm0 0" fill="#6fe3ff" data-original="#6fe3ff" style="" class=""/><path xmlns="http://www.w3.org/2000/svg" d="m305.671875 6c-20.527344.003906-37.164063 16.644531-37.160156 37.171875v185.078125h-45.25c-5.523438 0-10 4.476562-10 10v147.460938l-10.371094 8.289062-32.8125-26.25-32.808594 26.25-32.820312-26.25-32.808594 26.25-32.820313-26.25-32.808593 26.25-.011719-345.328125c0-23.566406 19.105469-42.671875 42.671875-42.671875zm0 0" fill="#ffd700" data-original="#f8ec7d" style="" class=""/><g xmlns="http://www.w3.org/2000/svg" fill="#63316d"><path d="m383.261719 222.25h-108.75v-75.160156h68.328125c3.3125 0 6-2.6875 6-6v-97.917969c-.027344-23.039063-18.121094-42.003906-41.128906-43.1210938v-.0507812h-259.039063c-26.867187.03125-48.640625 21.804688-48.671875 48.671875l.0117188 345.328125c-.0039063 2.304688 1.3203122 4.410156 3.3984372 5.410156 2.078125.996094 4.546875.714844 6.347656-.722656l29.0625-23.253906 29.070313 23.253906c2.195313 1.753906 5.308594 1.753906 7.5 0l29.0625-23.253906 29.074219 23.253906c2.191406 1.753906 5.308594 1.753906 7.5 0l29.0625-23.253906 29.058594 23.253906c2.191406 1.75 5.304687 1.75 7.496093 0l.625-.5v77.8125c.007813 8.832031 7.167969 15.988281 16 16h160c8.832031-.011719 15.988281-7.167969 16-16v-237.75c-.011719-8.835938-7.175781-15.992188-16.007812-16zm-46.421875-179.078125v91.917969h-62.328125v-91.917969c0-17.214844 13.953125-31.167969 31.164062-31.167969 17.210938 0 31.164063 13.953125 31.164063 31.167969zm-133.949219 343.144531-29.0625-23.253906c-2.191406-1.753906-5.304687-1.753906-7.5 0l-29.058594 23.253906-29.074219-23.253906c-2.191406-1.753906-5.304687-1.753906-7.5 0l-29.058593 23.253906-29.070313-23.253906c-2.191406-1.753906-5.304687-1.753906-7.5 0l-23.058594 18.453125-.007812-332.84375c.023438-20.246094 16.425781-36.648437 36.671875-36.671875h227.15625c-.222656.21875-.457031.425781-.675781.648438-8.121094 8.078124-12.671875 19.066406-12.640625 30.523437v179.078125h-39.25c-8.832031.011719-15.992188 7.167969-16 16v144.574219zm184.371094 89.683594c0 2.210938-1.792969 4-4 4h-160c-2.210938 0-4-1.789062-4-4v-237.75c0-2.210938 1.789062-4 4-4h160c2.207031 0 4 1.789062 4 4zm0 0" fill="#63316d" data-original="#63316d" style="" class=""/><path d="m370.761719 244.75h-135c-3.316407 0-6 2.6875-6 6v35c0 3.3125 2.683593 6 6 6h135c3.3125 0 6-2.6875 6-6v-35c0-3.3125-2.6875-6-6-6zm-6 35h-123v-23h123zm0 0" fill="#63316d" data-original="#63316d" style="" class=""/><path d="m265.761719 313.5h-30c-3.316407 0-6 2.6875-6 6v30c0 3.3125 2.683593 6 6 6h30c3.3125 0 6-2.6875 6-6v-30c0-3.3125-2.6875-6-6-6zm-6 30h-18v-18h18zm0 0" fill="#63316d" data-original="#63316d" style="" class=""/><path d="m316.011719 313.5h-30c-3.316407 0-6 2.6875-6 6v30c0 3.3125 2.683593 6 6 6h30c3.3125 0 6-2.6875 6-6v-30c0-3.3125-2.6875-6-6-6zm-6 30h-18v-18h18zm0 0" fill="#63316d" data-original="#63316d" style="" class=""/><path d="m370.761719 313.5h-30c-3.316407 0-6 2.6875-6 6v30c0 3.3125 2.683593 6 6 6h30c3.3125 0 6-2.6875 6-6v-30c0-3.3125-2.6875-6-6-6zm-6 30h-18v-18h18zm0 0" fill="#63316d" data-original="#63316d" style="" class=""/><path d="m265.761719 366h-30c-3.316407 0-6 2.6875-6 6v30c0 3.3125 2.683593 6 6 6h30c3.3125 0 6-2.6875 6-6v-30c0-3.3125-2.6875-6-6-6zm-6 30h-18v-18h18zm0 0" fill="#63316d" data-original="#63316d" style="" class=""/><path d="m316.011719 366h-30c-3.316407 0-6 2.6875-6 6v30c0 3.3125 2.683593 6 6 6h30c3.3125 0 6-2.6875 6-6v-30c0-3.3125-2.6875-6-6-6zm-6 30h-18v-18h18zm0 0" fill="#63316d" data-original="#63316d" style="" class=""/><path d="m370.761719 366h-30c-3.316407 0-6 2.6875-6 6v30c0 3.3125 2.683593 6 6 6h30c3.3125 0 6-2.6875 6-6v-30c0-3.3125-2.6875-6-6-6zm-6 30h-18v-18h18zm0 0" fill="#63316d" data-original="#63316d" style="" class=""/><path d="m265.761719 418.5h-30c-3.316407 0-6 2.6875-6 6v30c0 3.3125 2.683593 6 6 6h30c3.3125 0 6-2.6875 6-6v-30c0-3.3125-2.6875-6-6-6zm-6 30h-18v-18h18zm0 0" fill="#63316d" data-original="#63316d" style="" class=""/><path d="m316.011719 418.5h-30c-3.316407 0-6 2.6875-6 6v30c0 3.3125 2.683593 6 6 6h30c3.3125 0 6-2.6875 6-6v-30c0-3.3125-2.6875-6-6-6zm-6 30h-18v-18h18zm0 0" fill="#63316d" data-original="#63316d" style="" class=""/><path d="m370.761719 418.5h-30c-3.316407 0-6 2.6875-6 6v30c0 3.3125 2.683593 6 6 6h30c3.3125 0 6-2.6875 6-6v-30c0-3.3125-2.6875-6-6-6zm-6 30h-18v-18h18zm0 0" fill="#63316d" data-original="#63316d" style="" class=""/><path d="m40.070312 180h2.351563c3.3125 0 6-2.6875 6-6s-2.6875-6-6-6h-2.351563c-3.3125 0-6 2.6875-6 6s2.6875 6 6 6zm0 0" fill="#63316d" data-original="#63316d" style="" class=""/><path d="m83.558594 168h-17.730469c-3.3125 0-6 2.6875-6 6s2.6875 6 6 6h17.730469c3.316406 0 6-2.6875 6-6s-2.683594-6-6-6zm0 0" fill="#63316d" data-original="#63316d" style="" class=""/><path d="m240.441406 174c0-3.3125-2.6875-6-6-6h-127.082031c-3.3125 0-6 2.6875-6 6s2.6875 6 6 6h127.082031c3.3125 0 6-2.6875 6-6zm0 0" fill="#63316d" data-original="#63316d" style="" class=""/><path d="m40.070312 130h2.351563c3.3125 0 6-2.6875 6-6s-2.6875-6-6-6h-2.351563c-3.3125 0-6 2.6875-6 6s2.6875 6 6 6zm0 0" fill="#63316d" data-original="#63316d" style="" class=""/><path d="m83.558594 118h-17.730469c-3.3125 0-6 2.6875-6 6s2.6875 6 6 6h17.730469c3.316406 0 6-2.6875 6-6s-2.683594-6-6-6zm0 0" fill="#63316d" data-original="#63316d" style="" class=""/><path d="m107.359375 130h127.082031c3.3125 0 6-2.6875 6-6s-2.6875-6-6-6h-127.082031c-3.3125 0-6 2.6875-6 6s2.6875 6 6 6zm0 0" fill="#63316d" data-original="#63316d" style="" class=""/><path d="m40.070312 80h2.351563c3.3125 0 6-2.6875 6-6s-2.6875-6-6-6h-2.351563c-3.3125 0-6 2.6875-6 6s2.6875 6 6 6zm0 0" fill="#63316d" data-original="#63316d" style="" class=""/><path d="m83.558594 68h-17.730469c-3.3125 0-6 2.6875-6 6s2.6875 6 6 6h17.730469c3.316406 0 6-2.6875 6-6s-2.683594-6-6-6zm0 0" fill="#63316d" data-original="#63316d" style="" class=""/><path d="m107.359375 80h127.082031c3.3125 0 6-2.6875 6-6s-2.6875-6-6-6h-127.082031c-3.3125 0-6 2.6875-6 6s2.6875 6 6 6zm0 0" fill="#63316d" data-original="#63316d" style="" class=""/><path d="m40.070312 230h2.351563c3.3125 0 6-2.6875 6-6s-2.6875-6-6-6h-2.351563c-3.3125 0-6 2.6875-6 6s2.6875 6 6 6zm0 0" fill="#63316d" data-original="#63316d" style="" class=""/><path d="m83.558594 218h-17.730469c-3.3125 0-6 2.6875-6 6s2.6875 6 6 6h17.730469c3.316406 0 6-2.6875 6-6s-2.683594-6-6-6zm0 0" fill="#63316d" data-original="#63316d" style="" class=""/><path d="m107.359375 230h77.082031c3.3125 0 6-2.6875 6-6s-2.6875-6-6-6h-77.082031c-3.3125 0-6 2.6875-6 6s2.6875 6 6 6zm0 0" fill="#63316d" data-original="#63316d" style="" class=""/><path d="m54.980469 284.488281c4.917969.007813 8.902343 3.992188 8.910156 8.910157 0 3.316406 2.6875 6 6 6s6-2.683594 6-6c-.015625-9.230469-6.070313-17.363282-14.910156-20.019532v-3.078125c0-3.316406-2.6875-6-6-6s-6 2.683594-6 6v3.078125c-9.941407 2.976563-16.191407 12.792969-14.6875 23.058594 1.503906 10.265625 10.3125 17.875 20.6875 17.871094 4.917969-.011719 8.914062 3.964844 8.925781 8.882812.015625 4.917969-3.960938 8.914063-8.878906 8.925782h-.09375c-4.898438-.027344-8.855469-4.003907-8.863282-8.898438 0-3.316406-2.6875-6-6-6s-6 2.683594-6 6c.015626 9.226562 6.070313 17.355469 14.910157 20.011719v3.757812c0 3.3125 2.6875 6 6 6s6-2.6875 6-6v-3.757812c9.9375-2.972657 16.191406-12.789063 14.6875-23.054688-1.503907-10.265625-10.3125-17.871093-20.6875-17.867187-4.921875 0-8.910157-3.988282-8.910157-8.910156 0-4.921876 3.988282-8.910157 8.910157-8.910157zm0 0" fill="#63316d" data-original="#63316d" style="" class=""/><path d="m191.511719 318.710938h-22.820313c-3.316406 0-6 2.683593-6 6 0 3.3125 2.683594 6 6 6h22.820313c3.3125 0 6-2.6875 6-6 0-3.316407-2.6875-6-6-6zm0 0" fill="#63316d" data-original="#63316d" style="" class=""/><path d="m147.441406 318.710938h-44.5c-3.316406 0-6 2.683593-6 6 0 3.3125 2.683594 6 6 6h44.5c3.3125 0 6-2.6875 6-6 0-3.316407-2.6875-6-6-6zm0 0" fill="#63316d" data-original="#63316d" style="" class=""/></g></g></svg>
