<?xml version="1.0"?>
<svg xmlns="http://www.w3.org/2000/svg" xmlns:xlink="http://www.w3.org/1999/xlink" xmlns:svgjs="http://svgjs.com/svgjs" version="1.1" width="512" height="512" x="0" y="0" viewBox="0 0 512 512" style="enable-background:new 0 0 512 512" xml:space="preserve" class=""><g><path xmlns="http://www.w3.org/2000/svg" d="m33.339 272.668c0 132.179 107.151 239.33 239.33 239.33s239.33-107.151 239.33-239.33-107.151-239.33-239.33-239.33v239.33z" fill="#f4f1f1" data-original="#f6f1f1" style="" class=""/><path xmlns="http://www.w3.org/2000/svg" d="m272.669 272.669 91.274 221.303c-28.124 11.62-58.957 18.028-91.274 18.028-132.172 0-239.331-107.149-239.331-239.331z" fill="#84ece9" data-original="#80e29d" style="" class=""/><path xmlns="http://www.w3.org/2000/svg" d="m448.716 110.54-176.047 162.129v-239.331c69.64 0 132.326 29.741 176.047 77.202z" fill="#ee3138" data-original="#df6b57" style="" class=""/><path xmlns="http://www.w3.org/2000/svg" d="m.001 239.33h239.33v-239.33c-132.179 0-239.33 107.151-239.33 239.33z" fill="#ffd700" data-original="#f6e266" style="" class=""/><path xmlns="http://www.w3.org/2000/svg" d="m128.186 141.707c-.027-.071-.055-.142-.084-.213-1.427-3.469-4.771-5.708-8.521-5.708-.003 0-.007 0-.01 0-3.754.004-7.098 2.251-8.519 5.725-.024.058-.047.117-.069.176l-24.657 64.74c-1.519 3.988.482 8.452 4.47 9.97 3.991 1.521 8.452-.483 9.97-4.47l4.246-11.147h28.95l4.198 11.125c1.168 3.094 4.108 5.001 7.23 5.001.906 0 1.828-.16 2.726-.499 3.992-1.507 6.008-5.964 4.501-9.957zm-17.289 43.62 8.656-22.728 8.577 22.728z" fill="#ffffff" data-original="#ffffff" style="" class=""/><path xmlns="http://www.w3.org/2000/svg" d="m222.981 204.732-21.608-30.716 18.354-26.054c2.458-3.489 1.622-8.309-1.867-10.766-3.488-2.458-8.309-1.621-10.766 1.867l-15.166 21.528-15.141-21.523c-2.455-3.49-7.274-4.328-10.765-1.874-3.49 2.455-4.329 7.275-1.874 10.765l18.327 26.052-21.64 30.718c-2.457 3.488-1.622 8.308 1.867 10.766 1.353.953 2.905 1.41 4.443 1.41 2.428 0 4.818-1.141 6.323-3.277l18.452-26.192 18.422 26.188c1.505 2.138 3.896 3.281 6.326 3.281 1.536 0 3.088-.457 4.439-1.407 3.491-2.456 4.33-7.276 1.874-10.766z" fill="#ffffff" data-original="#ffffff" style="" class=""/><path xmlns="http://www.w3.org/2000/svg" d="m91.858 143.513c0-4.267-3.459-7.726-7.726-7.726h-36.264c-4.267 0-7.726 3.459-7.726 7.726s3.459 7.727 7.726 7.727h10.332v57.938c0 4.267 3.459 7.726 7.726 7.726s7.726-3.459 7.726-7.726v-57.938h10.479c4.268-.001 7.727-3.46 7.727-7.727z" fill="#ffffff" data-original="#ffffff" style="" class=""/><g xmlns="http://www.w3.org/2000/svg" fill="#df6b57"><path d="m377.509 381.755c-.997 0-2.01-.194-2.987-.604-3.935-1.651-5.786-6.18-4.134-10.114l56.685-135.068c1.651-3.935 6.18-5.785 10.114-4.134 3.935 1.651 5.786 6.18 4.134 10.114l-56.685 135.068c-1.241 2.957-4.108 4.738-7.127 4.738z" fill="#ee3138" data-original="#df6b57" style="" class=""/><path d="m366.661 298.6c-18.071 0-32.773-16.523-32.773-36.832s14.702-36.832 32.773-36.832 32.773 16.523 32.773 36.832-14.702 36.832-32.773 36.832zm0-58.211c-9.55 0-17.32 9.591-17.32 21.379s7.77 21.379 17.32 21.379 17.32-9.591 17.32-21.379c0-11.789-7.77-21.379-17.32-21.379z" fill="#ee3138" data-original="#df6b57" style="" class=""/><path d="m443.216 390.948c-18.071 0-32.773-16.523-32.773-36.832s14.702-36.832 32.773-36.832 32.773 16.523 32.773 36.832c.001 20.31-14.701 36.832-32.773 36.832zm0-58.211c-9.55 0-17.32 9.591-17.32 21.379 0 11.789 7.77 21.379 17.32 21.379s17.32-9.591 17.32-21.379c.001-11.788-7.769-21.379-17.32-21.379z" fill="#ee3138" data-original="#df6b57" style="" class=""/></g><path xmlns="http://www.w3.org/2000/svg" d="m227.273 375.308c-2.243-.793-4.538-1.625-6.827-2.49v-36.535c5.757 1.379 9.186 4.29 9.484 4.55 3.139 2.843 7.988 2.63 10.865-.489 2.893-3.137 2.696-8.025-.441-10.918-.439-.405-7.822-7.056-19.907-8.87v-7.462c0-4.267-3.459-7.726-7.726-7.726s-7.726 3.459-7.726 7.726v8.055c-1.147.253-2.31.543-3.499.901-11.053 3.329-19.311 12.788-21.553 24.686-2.044 10.848 1.431 21.307 9.069 27.298 4.048 3.175 9.085 6.082 15.983 9.153v46.33c-5.968-.44-10.102-1.899-16.877-6.331-3.571-2.337-8.36-1.335-10.696 2.236s-1.335 8.36 2.236 10.696c9.878 6.462 16.625 8.388 25.337 8.879v8.355c0 4.267 3.459 7.726 7.726 7.726s7.726-3.459 7.726-7.726v-8.97c17.335-3.401 27.46-17.695 29.704-31.047 2.886-17.168-6.094-32.094-22.878-38.027zm-28.727-13.434c-3.081-2.417-4.392-7.121-3.42-12.278.871-4.62 3.921-10.172 9.867-12.418v28.816c-2.426-1.316-4.621-2.688-6.447-4.12zm36.366 48.898c-1.189 7.073-6.115 14.571-14.466 17.558v-39.053c.557.2 1.103.398 1.677.601 14.277 5.047 13.398 17.268 12.789 20.894z" fill="#736e6e" data-original="#736e6e" style="" class=""/><path xmlns="http://www.w3.org/2000/svg" d="m329.986 166.136c-4.378 0-7.941 3.562-7.941 7.941s3.562 7.941 7.941 7.941 7.941-3.562 7.941-7.941-3.562-7.941-7.941-7.941z" fill="#ffd700" data-original="#f6e266" style="" class=""/><path xmlns="http://www.w3.org/2000/svg" d="m330.1 150.096c4.267 0 7.726-3.46 7.726-7.727v-70.847c0-4.267-3.459-7.726-7.726-7.726s-7.726 3.459-7.726 7.726v70.847c0 4.267 3.459 7.727 7.726 7.727z" fill="#ffd700" data-original="#f6e266" style="" class=""/></g></svg>
