<?xml version="1.0" encoding="UTF-8"?>
<svg xmlns="http://www.w3.org/2000/svg" id="Filled" enable-background="new 0 0 64 64" height="512px" viewBox="0 0 64 64" width="512px" class=""><g><path d="m15.751 16c4.204-5.473 10.815-9 18.249-9 12.703 0 23 10.297 23 23s-10.297 23-23 23c-4.808 0-9.272-1.476-12.963-3.999z" fill="#38d4f2" data-original="#38D4F2" class="active-path" style="fill:#FFE529" data-old_color="#38d4f2"/><path d="m40 52.202c2.607-.703 5.03-1.851 7.184-3.361l4.493 4.493 5.657-5.657-4.493-4.493c1.889-2.694 3.206-5.814 3.799-9.184h6.36v-8h-6.36c-.593-3.37-1.91-6.49-3.799-9.184l4.493-4.493-5.657-5.657-4.493 4.493c-2.695-1.889-5.812-3.214-9.184-3.805v-6.354h-8v7" fill="#38d4f2" data-original="#38D4F2" class="active-path" style="fill:#FFE529" data-old_color="#38d4f2"/><circle cx="34" cy="30" fill="#ecfcff" r="17" data-original="#ECFCFF" class="" style="fill:#C12020" data-old_color="#ecfcff"/><circle cx="34" cy="30" fill="#a1f0ff" r="11" data-original="#A1F0FF" class="" style="fill:#FFFFFF" data-old_color="#a1f0ff"/><path d="m16 25-4 6 7 5 7-5-4-6z" fill="#ffd4cf" data-original="#FFD4CF" class="" style="fill:#FFFFFF" data-old_color="#ffd4cf"/><path d="m12 21c0 2.209 1.791 4 4 4h6c2.209 0 4-1.791 4-4v-12c0-2.209-1.791-4-4-4h-6c-2.209 0-4 1.791-4 4z" fill="#ffd4cf" data-original="#FFD4CF" class="" style="fill:#FFFFFF" data-old_color="#ffd4cf"/><path d="m26 12v-3c0-2.209-1.791-4-4-4h-6c-2.209 0-4 1.791-4 4v3z" fill="#ff593f" data-original="#FF593F" class="" style="fill:#000000" data-old_color="#ff593f"/><path d="m37 64v-24.137c0-2.353-1.375-4.489-3.517-5.462l-7.483-3.401-7 5-7-5-7.483 3.401c-2.142.974-3.517 3.11-3.517 5.462v24.137z" fill="#54524f" data-original="#54524F" class="" style="fill:#D7D7FF" data-old_color="#54524f"/><path d="m12 31-1.4 7.4 8.4-2.4z" fill="#fafafa" data-original="#FAFAFA" class=""/><path d="m26 31 1.15 6.9-8.15-1.9z" fill="#fafafa" data-original="#FAFAFA" class=""/><path d="m17.8 36-2.8 23 4 4 4-4-2.8-23z" fill="#ff593f" data-original="#FF593F" class="" style="fill:#000000" data-old_color="#ff593f"/><path d="m51.854 32.269 1.438 1.438 1.414-1.414-3-3c-.286-.286-.716-.372-1.09-.217-.373.154-.616.52-.616.924 0 6.621-4.16 12.639-10.354 14.976l.707 1.871c6.251-2.359 10.662-8.052 11.501-14.578z" data-original="#000000" class="" style="fill:#000000"/><path d="m49.555 26.234 1.943-.469c-1.953-8.104-9.148-13.765-17.498-13.765-1.803 0-3.583.267-5.293.791l.587 1.912c1.519-.467 3.102-.703 4.706-.703 7.422 0 13.818 5.031 15.555 12.234z" data-original="#000000" class="" style="fill:#000000"/><path d="m46.333 30c0-3.301-1.287-6.402-3.625-8.734l-1.412 1.416c1.958 1.954 3.037 4.553 3.037 7.318 0 3.587-1.818 6.865-4.863 8.769l1.061 1.695c3.633-2.271 5.802-6.183 5.802-10.464z" data-original="#000000" class="" style="fill:#000000"/><path d="m29.647 18.457.705 1.871c2.964-1.116 6.42-.783 9.115.901l1.061-1.695c-3.218-2.012-7.34-2.413-10.881-1.077z" data-original="#000000" class="" style="fill:#000000"/><path d="m63 25h-5.535c-.611-2.892-1.729-5.596-3.334-8.061l3.911-3.91c.188-.188.293-.441.293-.707s-.105-.52-.293-.707l-5.657-5.657c-.375-.375-1.039-.375-1.414 0l-3.91 3.911c-2.474-1.61-5.178-2.731-8.061-3.341v-5.528c0-.553-.447-1-1-1h-8c-.552 0-1 .447-1 1v7h2v-6h6v5.354c0 .485.349.901.827.985 3.18.558 6.135 1.782 8.783 3.639.398.28.938.232 1.281-.111l3.786-3.787 4.243 4.243-3.787 3.786c-.344.343-.391.884-.111 1.281 1.849 2.637 3.071 5.592 3.632 8.783.085.478.5.827.986.827h5.36v6h-5.359c-.485 0-.9.349-.984.826-.562 3.193-1.785 6.148-3.634 8.784-.279.397-.232.938.111 1.281l3.787 3.786-4.243 4.243-3.786-3.787c-.343-.344-.883-.389-1.281-.112-2.098 1.471-4.409 2.553-6.87 3.215l.52 1.932c2.416-.65 4.7-1.671 6.801-3.037l3.91 3.911c.188.188.441.293.707.293s.52-.105.707-.293l5.657-5.657c.188-.188.293-.441.293-.707s-.105-.52-.293-.707l-3.911-3.91c1.604-2.464 2.723-5.169 3.334-8.061h5.534c.553 0 1-.447 1-1v-8c0-.553-.447-1-1-1z" data-original="#000000" class="" style="fill:#000000"/><path d="m30 28h10v2h-10z" data-original="#000000" class="" style="fill:#000000"/><path d="m33.896 33.491-7.223-3.283-2.998-4.497c1.936-.691 3.325-2.542 3.325-4.711v-12c0-2.757-2.243-5-5-5h-6c-2.757 0-5 2.243-5 5v3c0 .553.448 1 1 1h7c2.206 0 4-1.794 4-4h-2c0 1.103-.897 2-2 2h-6v-2c0-1.654 1.346-3 3-3h6c1.654 0 3 1.346 3 3v12c0 1.654-1.346 3-3 3h-6c-1.654 0-3-1.346-3-3v-6h-2v6c0 2.169 1.389 4.02 3.324 4.711l-2.998 4.497-7.223 3.283c-2.492 1.133-4.103 3.634-4.103 6.372v23.137c0 .553.448 1 1 1h4v-2h-3v-22.137c0-1.956 1.15-3.742 2.931-4.552l5.729-2.604-1.042 5.507c-.064.341.052.69.308.924.187.172.428.262.674.262.092 0 .184-.013.275-.038l5.707-1.631-2.574 21.147c-.037.306.068.61.286.828l4 4c.194.196.45.294.706.294s.512-.098.707-.293l4-4c.217-.218.323-.522.286-.828l-2.592-21.293 5.522 1.288c.075.018.151.026.227.026.251 0 .497-.095.684-.271.244-.229.357-.564.302-.894l-.841-5.049 5.774 2.624c1.781.811 2.931 2.597 2.931 4.553v22.137h-3v2h4c.553 0 1-.447 1-1v-23.137c0-2.738-1.611-5.239-4.104-6.372zm-17.361-7.491h4.93l3.166 4.749-5.631 4.022-5.631-4.022zm-3.843 6.723 2.559 1.828 1.48 1.057-4.847 1.385zm9.256 25.915-2.948 2.948-2.948-2.948 2.617-21.503.358-.102.3.07zm-.567-23.11 1-.715 2.896-2.068.64 3.84z" data-original="#000000" class="" style="fill:#000000"/><path d="m7 48h2v16h-2z" data-original="#000000" class="" style="fill:#000000"/><path d="m29 48h2v16h-2z" data-original="#000000" class="" style="fill:#000000"/><path d="m24 44h4v2h-4z" data-original="#000000" class="" style="fill:#000000"/></g> </svg>