<?xml version="1.0" encoding="UTF-8"?>
<svg xmlns="http://www.w3.org/2000/svg" height="512px" viewBox="0 0 64 64" width="512px" class=""><g><path d="m61 17v28h-58v-28a1.973 1.973 0 0 1 1.93-2h15.07c-.09.22-.18.44-.26.67a.993.993 0 0 1 -.77.67l-3.13.52a1 1 0 0 0 -.84.99v4.3a1 1 0 0 0 .84.99l3.13.52a.993.993 0 0 1 .77.67c.16.44.33.86.53 1.28a.987.987 0 0 1 -.08 1.02l-1.84 2.58a1 1 0 0 0 .11 1.29l3.04 3.04a1 1 0 0 0 1.29.11l2.58-1.84a.987.987 0 0 1 1.02-.08c.42.2.84.37 1.28.53a.993.993 0 0 1 .67.77l.52 3.13a1 1 0 0 0 .99.84h4.3a1 1 0 0 0 .99-.84l.52-3.13a.993.993 0 0 1 .67-.77c.44-.16.86-.33 1.28-.53a.987.987 0 0 1 1.02.08l2.58 1.84a1 1 0 0 0 1.29-.11l3.04-3.04a1 1 0 0 0 .11-1.29l-1.84-2.58a.987.987 0 0 1 -.08-1.02c.2-.42.37-.84.53-1.28a.993.993 0 0 1 .77-.67l3.13-.52a1 1 0 0 0 .84-.99v-4.3a1 1 0 0 0 -.84-.99l-3.13-.52a.993.993 0 0 1 -.77-.67c-.08-.23-.17-.45-.26-.67h15.07a1.973 1.973 0 0 1 1.93 2z" fill="#57a4ff" data-original="#57A4FF" class="" style="fill:#E2FFE2" data-old_color="#57a4ff"/><circle cx="55" cy="33" fill="#ffeb99" r="2" data-original="#FFEB99" class="" style="fill:#FFE529" data-old_color="#ffeb99"/><path d="m49 17.85v4.3a1 1 0 0 1 -.84.99l-3.13.52a.993.993 0 0 0 -.77.67c-.16.44-.33.86-.53 1.28a.987.987 0 0 0 .08 1.02l1.84 2.58a1 1 0 0 1 -.11 1.29l-3.04 3.04a1 1 0 0 1 -1.29.11l-2.58-1.84a.987.987 0 0 0 -1.02-.08c-.42.2-.84.37-1.28.53a.993.993 0 0 0 -.67.77l-.52 3.13a1 1 0 0 1 -.99.84h-4.3a1 1 0 0 1 -.99-.84l-.52-3.13a.993.993 0 0 0 -.67-.77c-.44-.16-.86-.33-1.28-.53a.987.987 0 0 0 -1.02.08l-2.58 1.84a1 1 0 0 1 -1.29-.11l-3.04-3.04a1 1 0 0 1 -.11-1.29l1.84-2.58a.987.987 0 0 0 .08-1.02c-.2-.42-.37-.84-.53-1.28a.993.993 0 0 0 -.77-.67l-3.13-.52a1 1 0 0 1 -.84-.99v-4.3a1 1 0 0 1 .84-.99l3.13-.52a.993.993 0 0 0 .77-.67c.08-.23.17-.45.26-.67.08-.2.17-.41.27-.61a.987.987 0 0 0 -.08-1.02l-1.84-2.58a1 1 0 0 1 .11-1.29l3.04-3.04a1 1 0 0 1 1.29-.11l2.58 1.84a.987.987 0 0 0 1.02.08c.42-.2.84-.37 1.28-.53a.993.993 0 0 0 .67-.77l.52-3.13a1 1 0 0 1 .99-.84h4.3a1 1 0 0 1 .99.84l.52 3.13a.993.993 0 0 0 .67.77c.44.16.86.33 1.28.53a.987.987 0 0 0 1.02-.08l2.58-1.84a1 1 0 0 1 1.29.11l3.04 3.04a1 1 0 0 1 .11 1.29l-1.84 2.58a.987.987 0 0 0 -.08 1.02c.1.2.19.41.27.61.09.22.18.44.26.67a.993.993 0 0 0 .77.67l3.13.52a1 1 0 0 1 .84.99z" fill="#ff7956" data-original="#FF7956" class="" style="fill:#C12020" data-old_color="#ff7956"/><circle cx="47" cy="39" fill="#ffeb99" r="2" data-original="#FFEB99" class="" style="fill:#FFE529" data-old_color="#ffeb99"/><path d="m41 57 3 4h-24l3-4h2 14z" fill="#e0e0e2" data-original="#E0E0E2" class="" style="fill:#4949E7" data-old_color="#e0e0e2"/><g fill="#ffeb99"><path d="m38 51 1 6h-14l1-6h5z" data-original="#FFEB99" class="" style="fill:#FFE529" data-old_color="#FFEB99"/><circle cx="32" cy="20" r="8" data-original="#FFEB99" class="" style="fill:#FFE529" data-old_color="#FFEB99"/><path d="m31 45h-28v4a1.973 1.973 0 0 0 1.93 2h54.14a1.973 1.973 0 0 0 1.93-2v-4z" data-original="#FFEB99" class="" style="fill:#FFE529" data-old_color="#FFEB99"/><circle cx="17" cy="39" r="2" data-original="#FFEB99" class="" style="fill:#FFE529" data-old_color="#FFEB99"/><circle cx="9" cy="33" r="2" data-original="#FFEB99" class="" style="fill:#FFE529" data-old_color="#FFEB99"/></g><path d="m59.07 14h-14.431c-.007-.016-.012-.032-.02-.048l1.844-2.581a1.994 1.994 0 0 0 -.213-2.577l-3.045-3.044a1.994 1.994 0 0 0 -2.576-.213l-2.591 1.832a12.482 12.482 0 0 0 -1.391-.569l-.521-3.133a2 2 0 0 0 -1.973-1.667h-4.306a2 2 0 0 0 -1.973 1.671l-.536 3.129a12.546 12.546 0 0 0 -1.386.581l-2.581-1.845a1.993 1.993 0 0 0 -2.571.214l-3.05 3.044a1.994 1.994 0 0 0 -.213 2.577l1.832 2.59c-.006.012-.01.027-.016.039h-14.423a2.969 2.969 0 0 0 -2.93 3v32a2.969 2.969 0 0 0 2.93 3h19.89l-.667 4h-1.153a1 1 0 0 0 -.8.4l-3 4a1 1 0 0 0 .8 1.6h24a1 1 0 0 0 .8-1.6l-3-4a1 1 0 0 0 -.8-.4h-1.153l-.667-4h19.89a2.969 2.969 0 0 0 2.93-3v-32a2.969 2.969 0 0 0 -2.93-3zm-39.906-3.792 3.045-3.044 2.582 1.845a2.009 2.009 0 0 0 2.032.165 11.964 11.964 0 0 1 1.177-.487 2.008 2.008 0 0 0 1.325-1.557l.522-3.13h4.306l.522 3.13a2.008 2.008 0 0 0 1.325 1.557 11.846 11.846 0 0 1 1.178.487 2.01 2.01 0 0 0 2.034-.166l2.581-1.844 3.045 3.045-1.845 2.582a2.009 2.009 0 0 0 -.165 2.033 11.771 11.771 0 0 1 .485 1.176 2.007 2.007 0 0 0 1.557 1.324l3.13.522v4.306l-3.13.522a2.008 2.008 0 0 0 -1.557 1.326 11.614 11.614 0 0 1 -.487 1.179 2.006 2.006 0 0 0 .166 2.033l1.844 2.583-3.045 3.044-2.582-1.845a2.01 2.01 0 0 0 -2.032-.165 11.964 11.964 0 0 1 -1.177.484 2.008 2.008 0 0 0 -1.323 1.557l-.524 3.13h-4.306l-.522-3.13a2.008 2.008 0 0 0 -1.325-1.557 11.846 11.846 0 0 1 -1.178-.487 2.051 2.051 0 0 0 -.882-.2 1.987 1.987 0 0 0 -1.152.367l-2.581 1.844-3.045-3.045 1.845-2.582a2.009 2.009 0 0 0 .165-2.033 11.771 11.771 0 0 1 -.485-1.177 2.007 2.007 0 0 0 -1.557-1.324l-3.13-.523v-4.306l3.13-.522a2.008 2.008 0 0 0 1.557-1.325 11.614 11.614 0 0 1 .487-1.179 2.009 2.009 0 0 0 -.166-2.034zm-14.234 5.792h10.316a1.988 1.988 0 0 0 -1.246 1.847v.153h-5a1 1 0 0 0 -1 1v11.184a3 3 0 1 0 2 0v-10.184h4v2.153a1.992 1.992 0 0 0 1.672 1.972l3.128.538a12.417 12.417 0 0 0 .581 1.384l-1.844 2.582a1.994 1.994 0 0 0 .213 2.577l.815.815-2.272 2.272a1 1 0 0 0 -.293.707v1.184a3 3 0 1 0 2 0v-.77l1.979-1.979.816.815a1.992 1.992 0 0 0 2.576.213l2.591-1.832a12.482 12.482 0 0 0 1.391.567l.521 3.133a2 2 0 0 0 1.973 1.669h4.306a2 2 0 0 0 1.973-1.671l.536-3.129a12.546 12.546 0 0 0 1.386-.581l2.581 1.845a1.994 1.994 0 0 0 2.576-.214l.816-.815 1.979 1.979v.77a3 3 0 1 0 2 0v-1.184a1 1 0 0 0 -.293-.707l-2.272-2.272.815-.815a1.994 1.994 0 0 0 .213-2.577l-1.832-2.59a12.491 12.491 0 0 0 .567-1.392l3.13-.522a1.992 1.992 0 0 0 1.672-1.972v-2.153h4v10.184a3 3 0 1 0 2 0v-11.184a1 1 0 0 0 -1-1h-5v-.153a1.988 1.988 0 0 0 -1.246-1.847h10.316a.98.98 0 0 1 .93 1v27h-56v-27a.98.98 0 0 1 .93-1zm5.07 17a1 1 0 1 1 -1-1 1 1 0 0 1 1 1zm8 6a1 1 0 1 1 -1-1 1 1 0 0 1 1 1zm30 0a1 1 0 1 1 -1-1 1 1 0 0 1 1 1zm8-6a1 1 0 1 1 -1-1 1 1 0 0 1 1 1zm-14 27h-20l1.5-2h17zm-4.18-4h-11.64l.667-4h10.306zm21.25-6h-54.14a.98.98 0 0 1 -.93-1v-3h56v3a.98.98 0 0 1 -.93 1z" data-original="#000000" class="active-path" style="fill:#000000" data-old_color="#000000"/><path d="m32 29a9 9 0 1 0 -9-9 9.01 9.01 0 0 0 9 9zm0-16a7 7 0 1 1 -7 7 7.008 7.008 0 0 1 7-7z" data-original="#000000" class="active-path" style="fill:#000000" data-old_color="#000000"/><path d="m31 47h2v2h-2z" data-original="#000000" class="active-path" style="fill:#000000" data-old_color="#000000"/><path d="m31 6h2v2h-2z" data-original="#000000" class="active-path" style="fill:#000000" data-old_color="#000000"/><path d="m21.808 9.808h2v2h-2z" transform="matrix(.707 -.707 .707 .707 -.962 19.293)" data-original="#000000" class="active-path" style="fill:#000000" data-old_color="#000000"/><path d="m18 19h2v2h-2z" data-original="#000000" class="active-path" style="fill:#000000" data-old_color="#000000"/><path d="m21.808 28.192h2v2h-2z" transform="matrix(.707 -.707 .707 .707 -13.962 24.678)" data-original="#000000" class="active-path" style="fill:#000000" data-old_color="#000000"/><path d="m31 32h2v2h-2z" data-original="#000000" class="active-path" style="fill:#000000" data-old_color="#000000"/><path d="m40.192 28.192h2v2h-2z" transform="matrix(.707 -.707 .707 .707 -8.577 37.678)" data-original="#000000" class="active-path" style="fill:#000000" data-old_color="#000000"/><path d="m44 19h2v2h-2z" data-original="#000000" class="active-path" style="fill:#000000" data-old_color="#000000"/><path d="m40.192 9.808h2v2h-2z" transform="matrix(.707 -.707 .707 .707 4.423 32.293)" data-original="#000000" class="active-path" style="fill:#000000" data-old_color="#000000"/></g> </svg>