<?xml version="1.0"?>
<svg xmlns="http://www.w3.org/2000/svg" xmlns:xlink="http://www.w3.org/1999/xlink" xmlns:svgjs="http://svgjs.com/svgjs" version="1.1" width="512" height="512" x="0" y="0" viewBox="0 0 512 512" style="enable-background:new 0 0 512 512" xml:space="preserve" class=""><g><g xmlns="http://www.w3.org/2000/svg"><g><path d="m24.067 405.1v66.267c0 18.299 14.834 33.133 33.132 33.133h397.601c18.299 0 33.132-14.834 33.132-33.133v-66.267z" fill="#155897" data-original="#b5dbff" style="" class=""/><path d="m464.933 405.1v66.268c0 18.298-14.834 33.132-33.132 33.132h23c18.299 0 33.132-14.834 33.132-33.132v-66.268z" fill="#1e5889" data-original="#97d0ff" style="" class=""/><path d="m24.067 140.033v298.2c0 18.298 14.834 33.132 33.132 33.132h397.601c18.299 0 33.132-14.834 33.132-33.132v-298.2z" fill="#ffd700" data-original="#edf5ff" style="" class=""/><path d="m487.933 156.6v-82.834c0-18.299-14.834-33.132-33.132-33.132h-397.601c-18.299 0-33.132 14.834-33.132 33.132v82.834z" fill="#ee3138" data-original="#ff435b" style="" class=""/><path d="m123.467 73.767c0 9.15 7.417 16.567 16.567 16.567s16.567-7.417 16.567-16.567v-49.7c0-9.15-7.417-16.567-16.567-16.567-9.149 0-16.567 7.417-16.567 16.567z" fill="#ffffff" data-original="#596c76" style="" class=""/><path d="m355.4 73.767c0 9.15 7.417 16.567 16.567 16.567s16.567-7.417 16.567-16.567v-49.7c0-9.15-7.417-16.567-16.567-16.567s-16.567 7.417-16.567 16.567z" fill="#ffffff" data-original="#596c76" style="" class=""/><path d="m464.933 140.033v298.2c0 18.298-14.834 33.132-33.132 33.132h23c18.299 0 33.132-14.834 33.132-33.132v-298.2z" fill="#ffd700" data-original="#d5e8fe" style="" class=""/><path d="m454.8 40.633h-23c18.299 0 33.132 14.834 33.132 33.132v82.835h23v-82.834c.001-18.299-14.833-33.133-33.132-33.133z" fill="#e3374e" data-original="#e3374e" style="" class=""/></g></g><g xmlns="http://www.w3.org/2000/svg"><path d="m313.2 289.619 15.038-8.682 34.639 14.796c.961.411 1.96.605 2.942.605 2.913 0 5.685-1.708 6.901-4.556 1.627-3.809-.143-8.216-3.951-9.843l-24.294-10.377 22.878-13.208c3.587-2.071 4.816-6.658 2.745-10.245-2.07-3.588-6.66-4.816-10.245-2.745l-22.878 13.208 3.16-26.228c.495-4.112-2.437-7.848-6.549-8.343-4.105-.494-7.848 2.437-8.344 6.549l-4.506 37.397-15.037 8.682-42.2-24.364v-17.365l30.133-22.6c3.313-2.485 3.985-7.186 1.5-10.5-2.484-3.313-7.187-3.984-10.5-1.5l-21.132 15.85v-26.416c0-4.142-3.357-7.5-7.5-7.5s-7.5 3.358-7.5 7.5v26.416l-21.133-15.85c-3.315-2.485-8.015-1.813-10.5 1.5-2.485 3.314-1.814 8.015 1.5 10.5l30.133 22.6v17.365l-42.2 24.364-15.037-8.682-4.506-37.397c-.496-4.113-4.239-7.044-8.344-6.549-4.112.496-7.044 4.231-6.549 8.343l3.16 26.228-22.878-13.208c-3.59-2.072-8.175-.842-10.245 2.745-2.071 3.587-.842 8.174 2.745 10.245l22.878 13.208-24.294 10.377c-3.809 1.627-5.578 6.034-3.951 9.843 1.217 2.848 3.988 4.556 6.901 4.556.982 0 1.981-.194 2.942-.605l34.639-14.796 15.038 8.682v48.729l-15.038 8.682-34.639-14.796c-3.811-1.628-8.217.143-9.844 3.951-1.627 3.81.143 8.216 3.951 9.843l24.294 10.377-22.878 13.208c-3.587 2.071-4.816 6.658-2.745 10.245 1.389 2.406 3.91 3.751 6.502 3.751 1.272 0 2.563-.324 3.743-1.006l22.878-13.209-3.16 26.228c-.495 4.112 2.436 7.848 6.549 8.343.305.037.607.055.907.055 3.741 0 6.978-2.796 7.437-6.604l4.506-37.397 15.037-8.682 42.2 24.364v17.365l-30.133 22.6c-3.314 2.485-3.985 7.186-1.5 10.5 2.486 3.314 7.188 3.986 10.5 1.5l21.133-15.85v26.417c0 4.142 3.357 7.5 7.5 7.5s7.5-3.358 7.5-7.5v-26.417l21.133 15.85c1.35 1.012 2.929 1.5 4.494 1.5 2.28 0 4.532-1.036 6.006-3 2.485-3.314 1.813-8.015-1.5-10.5l-30.133-22.6v-17.365l42.2-24.364 15.037 8.682 4.506 37.397c.459 3.808 3.695 6.604 7.436 6.604.3 0 .603-.018.907-.055 4.112-.496 7.044-4.231 6.549-8.343l-3.16-26.228 22.878 13.209c1.182.682 2.471 1.006 3.743 1.006 2.592 0 5.113-1.346 6.502-3.751 2.071-3.587.842-8.174-2.745-10.245l-22.878-13.208 24.294-10.377c3.809-1.627 5.578-6.034 3.951-9.843s-6.033-5.58-9.844-3.951l-34.639 14.796-15.038-8.682v-48.729zm-15 48.729-42.2 24.364-42.2-24.364v-48.729l42.2-24.364 42.2 24.364z" fill="#000000" data-original="#000000" style="" class=""/><path d="m231.934 313.983c0 13.271 10.796 24.066 24.066 24.066 13.271 0 24.066-10.796 24.066-24.066s-10.795-24.066-24.066-24.066c-13.27 0-24.066 10.796-24.066 24.066zm33.132 0c0 4.999-4.067 9.066-9.066 9.066s-9.066-4.067-9.066-9.066 4.067-9.067 9.066-9.067 9.066 4.068 9.066 9.067z" fill="#000000" data-original="#000000" style="" class=""/><path d="m454.801 33.133h-58.768v-9.066c0-13.271-10.796-24.067-24.066-24.067s-24.067 10.796-24.067 24.067v9.066h-183.8v-9.066c0-13.271-10.796-24.067-24.067-24.067s-24.066 10.796-24.066 24.067v9.066h-58.768c-22.404 0-40.632 18.228-40.632 40.632v397.602c0 22.405 18.227 40.632 40.632 40.632h51.268c4.143 0 7.5-3.358 7.5-7.5s-3.357-7.5-7.5-7.5h-51.268c-14.134 0-25.632-11.499-25.632-25.632v-1.635c6.997 5.705 15.921 9.134 25.632 9.134h397.602c9.711 0 18.634-3.429 25.632-9.134v1.635c0 14.134-11.498 25.632-25.632 25.632h-316.334c-4.143 0-7.5 3.358-7.5 7.5s3.357 7.5 7.5 7.5h316.334c22.404 0 40.632-18.228 40.632-40.632v-397.601c0-22.405-18.228-40.633-40.632-40.633zm-91.901-9.066c0-4.999 4.067-9.067 9.066-9.067s9.066 4.067 9.066 9.067v49.7c0 5-4.067 9.067-9.066 9.067s-9.066-4.067-9.066-9.067zm-231.933 0c0-4.999 4.067-9.067 9.066-9.067s9.066 4.067 9.066 9.067v49.7c0 5-4.067 9.067-9.066 9.067s-9.066-4.067-9.066-9.067zm-73.768 24.066h58.768v18.133h-9.067c-4.143 0-7.5 3.358-7.5 7.5s3.357 7.5 7.5 7.5h10.269c3.16 9.608 12.211 16.567 22.864 16.567 10.652 0 19.704-6.959 22.863-16.567h10.27c4.143 0 7.5-3.358 7.5-7.5s-3.357-7.5-7.5-7.5h-9.066v-18.133h183.8v18.133h-9.067c-4.143 0-7.5 3.358-7.5 7.5s3.357 7.5 7.5 7.5h10.27c3.16 9.608 12.211 16.567 22.863 16.567s19.704-6.959 22.863-16.567h10.271c4.143 0 7.5-3.358 7.5-7.5s-3.357-7.5-7.5-7.5h-9.066v-18.133h58.768c14.134 0 25.632 11.499 25.632 25.632v42.201h-93.466c-4.143 0-7.5 3.358-7.5 7.5s3.357 7.5 7.5 7.5h93.466v18.134h-448.867v-18.133h325.399c4.143 0 7.5-3.358 7.5-7.5s-3.357-7.5-7.5-7.5h-325.399v-42.201c0-14.134 11.498-25.633 25.632-25.633zm397.602 415.733h-397.602c-14.134 0-25.632-11.499-25.632-25.632v-274.134h448.865v274.134c.001 14.134-11.497 25.632-25.631 25.632z" fill="#000000" data-original="#000000" style="" class=""/></g></g></svg>
