<svg id="Layer_2" height="512" viewBox="0 0 128 128" width="512" xmlns="http://www.w3.org/2000/svg" data-name="Layer 2"><path d="m29.731 43.791-2.873-10.67-2.872 10.67-10.669 2.872 10.669 2.873 2.872 10.669 2.873-10.669 10.669-2.873z" fill="#ffca90"/><path d="m98.207 43.791 2.872-10.67 2.873 10.67 10.669 2.872-10.669 2.873-2.873 10.669-2.872-10.669-10.669-2.873z" fill="#ffca90"/><path d="m101.95 45.792 7.953 2.141 4.718-1.27-10.669-2.872-2.873-10.67-1.27 4.718z" fill="#dda976"/><path d="m27.729 45.792 7.953 2.141 4.718-1.27-10.669-2.872-2.873-10.67-1.27 4.718z" fill="#dda976"/><g fill="#fb8c00"><path d="m43.26 118.129h-41.479l6.67-18.008h28.139z"/><path d="m84.74 118.129h-41.48l6.67-18.008h28.14z"/><path d="m63.969 100.121h-41.479l6.67-18.007h28.139z"/><path d="m105.448 100.121h-41.479l6.67-18.007h28.139z"/><path d="m84.74 82.114h-41.48l6.67-18.007h28.14z"/></g><path d="m77.693 77.9 1.561 4.214h5.486l-6.67-18.007h-28.14l-1.483 4h15.18a15 15 0 0 1 14.066 9.793z" fill="#ef6c00"/><path d="m98.4 95.907 1.561 4.214h5.486l-6.67-18.007h-28.138l-1.483 4h15.179a15 15 0 0 1 14.065 9.793z" fill="#ef6c00"/><path d="m56.953 95.907 1.561 4.214h5.486l-6.67-18.007h-28.139l-1.483 4h15.179a15 15 0 0 1 14.066 9.793z" fill="#ef6c00"/><path d="m59.88 25.058 4.089-15.187 4.089 15.187 15.187 4.09-15.187 4.089-4.089 15.187-4.089-15.187-15.187-4.089z" fill="#ffca90"/><path d="m65.055 28.061 11.113 2.992 7.077-1.905-15.187-4.09-4.089-15.187-1.906 7.077z" fill="#dda976"/><path d="m126.219 118.129h-41.479l6.67-18.008h28.139z" fill="#fb8c00"/><path d="m119.172 113.914 1.561 4.214h5.486l-6.67-18.007h-28.139l-1.483 4h15.179a15 15 0 0 1 14.066 9.793z" fill="#ef6c00"/><path d="m77.693 113.914 1.561 4.214h5.486l-6.67-18.007h-28.14l-1.483 4h15.18a15 15 0 0 1 14.066 9.793z" fill="#ef6c00"/><path d="m36.213 113.914 1.561 4.214h5.486l-6.67-18.007h-28.139l-1.483 4h15.179a15 15 0 0 1 14.066 9.793z" fill="#ef6c00"/></svg>