<svg height="512" viewBox="0 0 512 512" width="512" xmlns="http://www.w3.org/2000/svg"><g id="filled_outline" data-name="filled outline"><path d="m24 24h256l80 80v336h-336z" fill="#e6e6e6"/><path d="m24 340.816v99.184h336v-269.317a555.109 555.109 0 0 1 -336 170.133z" fill="#ccc"/><path d="m344 488h144l-16-80h-112z" fill="#ffc841"/><path d="m346.15 477.25-2.15 10.75h144l-11.923-59.616a473.8 473.8 0 0 1 -129.927 48.866z" fill="#f9b826"/><path d="m264 408h144l-16-80h-112z" fill="#ffc841"/><path d="m266.15 397.25-2.15 10.75h144l-11.923-59.616a473.8 473.8 0 0 1 -129.927 48.866z" fill="#f9b826"/><path d="m184 488h144l-16-80h-112z" fill="#ffc841"/><path d="m186.15 477.25-2.15 10.75h144l-11.923-59.616a473.8 473.8 0 0 1 -129.927 48.866z" fill="#f9b826"/><path d="m280 24v80h80z" fill="#b3b3b3"/><path d="m152 64-16 64h112l-16-64z" fill="#ffc841"/><g fill="#d5494c"><path d="m304 240a32 32 0 0 1 -32 32 32 32 0 0 1 32 32 32 32 0 0 1 32-32 32 32 0 0 1 -32-32z"/><path d="m448 280a32 32 0 0 1 -32 32 32 32 0 0 1 32 32 32 32 0 0 1 32-32 32 32 0 0 1 -32-32z"/><path d="m216 320a32 32 0 0 1 -32 32 32 32 0 0 1 32 32 32 32 0 0 1 32-32 32 32 0 0 1 -32-32z"/></g><path d="m479.845 406.431a8 8 0 0 0 -7.845-6.431h-57.441l-14.714-73.569a8 8 0 0 0 -7.845-6.431h-24v-216a8 8 0 0 0 -2.343-5.657l-80-80a8 8 0 0 0 -5.657-2.343h-256a8 8 0 0 0 -8 8v416a8 8 0 0 0 8 8h159.841l-7.686 38.431a8 8 0 0 0 7.845 9.569h144a8 8 0 0 0 7.845-9.569l-7.686-38.431h15.682l-7.686 38.431a8 8 0 0 0 7.845 9.569h144a8 8 0 0 0 7.845-9.569zm-81.604-6.431h-124.482l12.8-64h98.882zm-110.241-356.687 52.687 52.687h-52.687zm-100.958 388.687h-155.042v-400h240v72a8 8 0 0 0 8 8h72v208h-72a8 8 0 0 0 -7.845 6.431l-14.714 73.569h-57.441a8 8 0 0 0 -7.845 6.431zm6.717 48 12.8-64h98.882l12.8 64zm131.2-48-3.2-16h28.482l-3.2 16zm28.8 48 12.8-64h98.882l12.8 64z"/><path d="m136 136h112a8 8 0 0 0 7.761-9.94l-16-64a8 8 0 0 0 -7.761-6.06h-80a8 8 0 0 0 -7.761 6.06l-16 64a8 8 0 0 0 7.761 9.94zm22.246-64h67.508l12 48h-91.508z"/><path d="m56 200h272v16h-272z"/><path d="m144 160h96v16h-96z"/><path d="m56 240h80v16h-80z"/><path d="m152 240h104v16h-104z"/><path d="m56 280h184v16h-184z"/><path d="m56 320h112v16h-112z"/><path d="m56 360h96v16h-96z"/><path d="m312 240a8 8 0 0 0 -16 0 24.028 24.028 0 0 1 -24 24 8 8 0 0 0 0 16 24.028 24.028 0 0 1 24 24 8 8 0 0 0 16 0 24.028 24.028 0 0 1 24-24 8 8 0 0 0 0-16 24.028 24.028 0 0 1 -24-24zm-8 40.025a40.3 40.3 0 0 0 -8.025-8.025 40.3 40.3 0 0 0 8.025-8.025 40.3 40.3 0 0 0 8.025 8.025 40.3 40.3 0 0 0 -8.025 8.025z"/><path d="m440 344a8 8 0 0 0 16 0 24.028 24.028 0 0 1 24-24 8 8 0 0 0 0-16 24.028 24.028 0 0 1 -24-24 8 8 0 0 0 -16 0 24.028 24.028 0 0 1 -24 24 8 8 0 0 0 0 16 24.028 24.028 0 0 1 24 24zm8-40.025a40.3 40.3 0 0 0 8.025 8.025 40.3 40.3 0 0 0 -8.025 8.025 40.3 40.3 0 0 0 -8.025-8.025 40.3 40.3 0 0 0 8.025-8.025z"/><path d="m208 384a8 8 0 0 0 16 0 24.028 24.028 0 0 1 24-24 8 8 0 0 0 0-16 24.028 24.028 0 0 1 -24-24 8 8 0 0 0 -16 0 24.028 24.028 0 0 1 -24 24 8 8 0 0 0 0 16 24.028 24.028 0 0 1 24 24zm8-40.025a40.3 40.3 0 0 0 8.025 8.025 40.3 40.3 0 0 0 -8.025 8.025 40.3 40.3 0 0 0 -8.025-8.025 40.3 40.3 0 0 0 8.025-8.025z"/><path d="m296 368h48v16h-48z"/><path d="m360 368h16v16h-16z"/><path d="m376 448h48v16h-48z"/><path d="m440 448h16v16h-16z"/><path d="m216 448h48v16h-48z"/><path d="m280 448h16v16h-16z"/></g></svg>