<?xml version="1.0"?>
<svg xmlns="http://www.w3.org/2000/svg" xmlns:xlink="http://www.w3.org/1999/xlink" xmlns:svgjs="http://svgjs.com/svgjs" version="1.1" width="512" height="512" x="0" y="0" viewBox="0 0 511.99899 511.99899" style="enable-background:new 0 0 512 512" xml:space="preserve" class=""><g><path xmlns="http://www.w3.org/2000/svg" d="m472.375 272.027344c0 128.351562-104.050781 232.402344-232.402344 232.402344-128.351562 0-232.402344-104.050782-232.402344-232.402344 0-128.351563 104.050782-232.402344 232.402344-232.402344 128.351563 0 232.402344 104.050781 232.402344 232.402344zm0 0" fill="#39a2c2" data-original="#ffe45c" style="" class=""/><path xmlns="http://www.w3.org/2000/svg" d="m432.304688 272.027344c0 106.222656-86.109376 192.335937-192.332032 192.335937s-192.335937-86.113281-192.335937-192.335937 86.113281-192.332032 192.335937-192.332032 192.332032 86.109376 192.332032 192.332032zm0 0" fill="#39a2c2" data-original="#ffe45c" style="" class=""/><path xmlns="http://www.w3.org/2000/svg" d="m159.832031 272.027344c0-86.703125 57.382813-159.988282 136.238281-184-17.753906-5.402344-36.582031-8.332032-56.097656-8.332032-106.226562 0-192.335937 86.109376-192.335937 192.332032s86.109375 192.335937 192.335937 192.335937c19.515625 0 38.34375-2.933593 56.097656-8.335937-78.855468-24.011719-136.238281-97.292969-136.238281-184zm0 0" fill="#39a2c2" data-original="#ffb13b" style="" class=""/><path xmlns="http://www.w3.org/2000/svg" d="m504.429688 111.75c0 57.535156-46.640626 104.179688-104.179688 104.179688s-104.179688-46.644532-104.179688-104.179688c0-57.539062 46.640626-104.183594 104.179688-104.183594s104.179688 46.644532 104.179688 104.183594zm0 0" fill="#ee3138" data-original="#96e8ff" style="" class=""/><path xmlns="http://www.w3.org/2000/svg" d="m376.207031 111.75c0-43.335938 26.46875-80.46875 64.113281-96.171875-12.339843-5.144531-25.867187-8.007813-40.070312-8.007813-57.535156 0-104.179688 46.640626-104.179688 104.179688s46.640626 104.179688 104.179688 104.179688c14.203125 0 27.730469-2.863282 40.070312-8.007813-37.644531-15.703125-64.113281-52.839844-64.113281-96.171875zm0 0" fill="#ee3138" data-original="#19cffc" style="" class=""/><path xmlns="http://www.w3.org/2000/svg" d="m272.027344 231.957031 8.015625 40.070313h-80.140625l8.015625-40.070313zm0 0" fill="#ffd700" data-original="#bec3d2" style="" class=""/><path xmlns="http://www.w3.org/2000/svg" d="m312.097656 272.027344 8.011719 40.070312h-80.136719l8.011719-40.070312zm0 0" fill="#ffd700" data-original="#bec3d2" style="" class=""/><path xmlns="http://www.w3.org/2000/svg" d="m231.957031 272.027344 8.015625 40.070312h-80.140625l8.015625-40.070312zm0 0" fill="#ffd700" data-original="#bec3d2" style="" class=""/><g xmlns="http://www.w3.org/2000/svg" fill="#231f20"><path d="m503.402344 154.804688c5.703125-13.652344 8.597656-28.140626 8.597656-43.054688 0-61.617188-50.132812-111.75-111.75-111.75-35.765625 0-67.652344 16.890625-88.121094 43.109375-23.269531-7.328125-47.527344-11.054687-72.15625-11.054687-42.878906 0-84.957031 11.449218-121.695312 33.105468l7.6875 13.039063c34.410156-20.285157 73.832031-31.007813 114.007812-31.007813 21.570313 0 42.835938 3.050782 63.316406 9.046875-4.15625 7.230469-7.519531 14.96875-9.984374 23.089844-17.300782-4.777344-35.214844-7.203125-53.332032-7.203125-110.226562 0-199.902344 89.675781-199.902344 199.902344 0 110.226562 89.675782 199.902344 199.902344 199.902344 110.226563 0 199.902344-89.675782 199.902344-199.902344 0-18.105469-2.421875-36.015625-7.191406-53.304688 8.078125-2.4375 15.824218-5.777344 23.105468-9.945312 5.988282 20.449218 9.019532 41.664062 9.019532 63.25 0 60.054687-23.386719 116.515625-65.851563 158.984375-42.464843 42.464843-98.929687 65.851562-158.984375 65.851562-60.054687 0-116.515625-23.386719-158.984375-65.851562-42.464843-42.46875-65.851562-98.929688-65.851562-158.984375 0-36.136719 8.773437-72.050782 25.375-103.863282 16.070312-30.796874 39.46875-57.878906 67.664062-78.3125l-8.882812-12.253906c-30.085938 21.800782-55.050781 50.699219-72.203125 83.5625-17.722656 33.964844-27.089844 72.300782-27.089844 110.867188 0 64.097656 24.960938 124.359375 70.285156 169.683594 45.324219 45.328124 105.585938 70.289062 169.6875 70.289062 64.097656 0 124.359375-24.960938 169.683594-70.289062 45.324219-45.324219 70.289062-105.585938 70.289062-169.683594 0-24.644532-3.707031-48.832032-11.019531-72.066406 9.863281-7.699219 18.515625-17.121094 25.5-28.035157l-12.746093-8.160156c-17.878907 27.925781-48.320313 44.597656-81.429688 44.597656-53.273438 0-96.613281-43.339843-96.613281-96.613281s43.339843-96.613281 96.613281-96.613281 96.613281 43.339843 96.613281 96.613281c0 12.902344-2.5 25.421875-7.429687 37.222656zm-103.152344 68.695312c5.980469 0 11.882812-.472656 17.667969-1.386719 4.523437 16.171875 6.820312 32.945313 6.820312 49.914063 0 101.878906-82.886719 184.765625-184.765625 184.765625-101.882812 0-184.765625-82.886719-184.765625-184.765625s82.886719-184.765625 184.765625-184.765625c16.972656 0 33.746094 2.300781 49.929688 6.828125-.917969 5.753906-1.402344 11.652344-1.402344 17.660156 0 61.617188 50.132812 111.75 111.75 111.75zm0 0" fill="#231f20" data-original="#231f20" style="" class=""/><path d="m424.292969 72.125h16.027343v15.136719h-16.027343zm0 0" fill="#231f20" data-original="#231f20" style="" class=""/><path d="m424.292969 136.238281h16.027343v15.136719h-16.027343zm0 0" fill="#231f20" data-original="#231f20" style="" class=""/><path d="m360.179688 136.238281h16.027343v15.136719h-16.027343zm0 0" fill="#231f20" data-original="#231f20" style="" class=""/><path d="m360.179688 72.125h16.027343v15.136719h-16.027343zm0 0" fill="#231f20" data-original="#231f20" style="" class=""/><path d="m231.957031 104.179688h16.03125v15.136718h-16.03125zm0 0" fill="#231f20" data-original="#231f20" style="" class=""/><path d="m231.957031 424.738281h16.03125v15.136719h-16.03125zm0 0" fill="#231f20" data-original="#231f20" style="" class=""/><path d="m71.679688 272.472656h16.027343v15.136719h-16.027343zm0 0" fill="#231f20" data-original="#231f20" style="" class=""/><path d="m392.234375 272.472656h16.03125v15.136719h-16.03125zm0 0" fill="#231f20" data-original="#231f20" style="" class=""/><path d="m278.230469 224.390625h-76.519531l-8.015626 40.070313h-32.054687l-11.042969 55.203124h178.746094l-11.042969-55.203124h-32.054687zm-64.109375 15.136719h51.703125l4.988281 24.933594h-61.679688zm-45.058594 65 4.988281-24.929688h51.703125l4.988282 24.929688zm136.832031-24.929688 4.984375 24.929688h-61.675781l4.988281-24.929688zm0 0" fill="#231f20" data-original="#231f20" style="" class=""/><path d="m197.242188 178.519531 16.027343 16.027344-10.703125 10.703125-16.027344-16.027344zm0 0" fill="#231f20" data-original="#231f20" style="" class=""/><path d="m277.394531 205.253906-10.703125-10.703125 16.027344-16.027343 10.703125 10.703124zm0 0" fill="#231f20" data-original="#231f20" style="" class=""/><path d="m231.957031 336.585938h16.03125v15.136718h-16.03125zm0 0" fill="#231f20" data-original="#231f20" style="" class=""/></g><path xmlns="http://www.w3.org/2000/svg" d="m464.363281 104.179688h-56.546875v-56.542969h-15.132812v56.542969h-56.542969v15.136718h56.542969v56.542969h15.132812v-56.542969h56.546875zm0 0" fill="#ffffff" data-original="#ffffff" style="" class=""/><path xmlns="http://www.w3.org/2000/svg" d="m232.402344 167.847656h15.136718v32.054688h-15.136718zm0 0" fill="#ffffff" data-original="#ffffff" style="" class=""/><path xmlns="http://www.w3.org/2000/svg" d="m189.5 120.328125c-41.578125 13.828125-76.035156 44.589844-94.539062 84.398437l13.726562 6.378907c16.753906-36.042969 47.953125-63.894531 85.589844-76.414063zm0 0" fill="#ffffff" data-original="#ffffff" style="" class=""/><path xmlns="http://www.w3.org/2000/svg" d="m300.894531 403.316406 6.378907 13.722656c39.808593-18.503906 70.570312-52.960937 84.394531-94.539062l-14.359375-4.773438c-12.519532 37.636719-40.371094 68.832032-76.414063 85.589844zm0 0" fill="#ffffff" data-original="#ffffff" style="" class=""/><path xmlns="http://www.w3.org/2000/svg" d="m272.027344 336.585938h16.027344v15.136718h-16.027344zm0 0" fill="#ffffff" data-original="#ffffff" style="" class=""/><path xmlns="http://www.w3.org/2000/svg" d="m191.890625 336.585938h16.027344v15.136718h-16.027344zm0 0" fill="#ffffff" data-original="#ffffff" style="" class=""/></g></svg>
