<?xml version="1.0"?>
<svg xmlns="http://www.w3.org/2000/svg" xmlns:xlink="http://www.w3.org/1999/xlink" xmlns:svgjs="http://svgjs.com/svgjs" version="1.1" width="512" height="512" x="0" y="0" viewBox="0 0 61 61" style="enable-background:new 0 0 512 512" xml:space="preserve" class=""><g><g xmlns="http://www.w3.org/2000/svg" id="027---Limited-Sale" fill="none"><g id="Icons" transform="translate(1)"><path id="Shape" d="m54 28c.0045249 14.7177739-11.7790441 26.7278712-26.4942363 27.0035637s-26.94035777-11.2845957-27.48712426-25.9922105c-.54676648-14.7076149 10.78631616-27.14369836 25.48136056-27.9613532 14.62-1.17 28.5 10.95 28.5 26.95z" fill="#187c8f" data-original="#283593" style="" class=""/><ellipse id="Oval" cx="25.5" cy="28" fill="#187c8f" rx="25.5" ry="26.95" data-original="#3f51b5" style="" class=""/><path id="Shape" d="m50 28c0 12.7025492-10.2974508 23-23 23s-23-10.2974508-23-23 10.2974508-23 23-23c6.0999793 0 11.9501193 2.42320733 16.263456 6.736544 4.3133367 4.3133367 6.736544 10.1634767 6.736544 16.263456z" fill="#ffd700" data-original="#00838f" style="" class=""/><path id="Shape" d="m47 28c.0251713 12.146325-9.3988202 22.2184348-21.52 23-12.0878125-.798349-21.48424936-10.8358524-21.48424936-22.95s9.39643686-22.151651 21.48424936-22.95c12.0827177.77907982 21.4924484 10.7922226 21.52 22.9z" fill="#ffd700" data-original="#00bcd4" style="" class=""/><path id="Shape" d="m30 28c.0035687 1.4923028-1.0902701 2.760344-2.5669482 2.9757552-1.4766782.2154111-2.8871777-.6873086-3.3100668-2.1184428-.4228892-1.4311342.2704213-2.9555135 1.627015-3.5773124.9276031-.4251697 2.0077157-.3496907 2.8671697.2003599.859454.5500505 1.3803901 1.4992427 1.3828303 2.5196401z" fill="#cfd8dc" data-original="#cfd8dc" style="" class=""/><path id="Shape" d="m25.75 30.72c-1.0579131-.4922187-1.7344566-1.5531841-1.7344566-2.72s.6765435-2.2277813 1.7344566-2.72c1.0579131.4922187 1.7344566 1.5531841 1.7344566 2.72s-.6765435 2.2277813-1.7344566 2.72z" fill="#f5f5f5" data-original="#f5f5f5" style="" class=""/><path id="Shape" d="m58 46c.0017041 6.9851851-5.5169422 12.7231034-12.4968946 12.9934327-6.9799525.2703293-12.9258546-5.0235738-13.4644092-11.9879671-.5385546-6.9643932 4.5227733-13.1094825 11.4613038-13.9154656 3.6837332-.4279043 7.374858.7378259 10.1446242 3.2038729 2.7697661 2.466047 4.3544711 5.9976245 4.3553758 9.7061271z" fill="#ee3138" data-original="#549414" style="" class=""/><ellipse id="Oval" cx="43.5" cy="46" fill="#ee3138" rx="11.5" ry="12.91" data-original="#60a917" style="" class=""/><g fill="#f5f5f5"><circle id="Oval" cx="40" cy="41" r="2" fill="#f5f5f5" data-original="#f5f5f5" style="" class=""/><circle id="Oval" cx="50" cy="51" r="2" fill="#f5f5f5" data-original="#f5f5f5" style="" class=""/></g></g><g id="Layer_10" fill="#000" transform="translate(-1 -1)"><path id="Shape" d="m29 8c-.5522847 0-1 .44771525-1 1v1c0 .5522847.4477153 1 1 1s1-.4477153 1-1v-1c0-.55228475-.4477153-1-1-1z" fill="#000000" data-original="#000000" style="" class=""/><path id="Shape" d="m29 50c.5522847 0 1-.4477153 1-1v-1c0-.5522847-.4477153-1-1-1s-1 .4477153-1 1v1c0 .5522847.4477153 1 1 1z" fill="#000000" data-original="#000000" style="" class=""/><path id="Shape" d="m19.87 11.18c-.2761424-.4804877-.8895123-.6461424-1.37-.37s-.6461424.8895123-.37 1.37l.5.87c.179341.3106342.5113152.501424.87.5.3579753.0014245.6894063-.1886117.8690104-.498274.1796041-.3096622.1799815-.6917095.0009896-1.001726z" fill="#000000" data-original="#000000" style="" class=""/><path id="Shape" d="m13.05 18.63-.87-.5c-.3108211-.1786328-.693331-.1778752-1.0034421.0019873s-.50071.5115047-.5.87.192621.6893799.5034421.8680127l.87.5c.4804877.2761423 1.0938576.1104877 1.37-.37.2761423-.4804877.1104877-1.0938576-.37-1.37z" fill="#000000" data-original="#000000" style="" class=""/><path id="Shape" d="m11 29c0-.5522847-.4477153-1-1-1h-1c-.55228475 0-1 .4477153-1 1s.44771525 1 1 1h1c.5522847 0 1-.4477153 1-1z" fill="#000000" data-original="#000000" style="" class=""/><path id="Shape" d="m47 29c0 .5522847.4477153 1 1 1h1c.5522847 0 1-.4477153 1-1s-.4477153-1-1-1h-1c-.5522847 0-1 .4477153-1 1z" fill="#000000" data-original="#000000" style="" class=""/><path id="Shape" d="m12.05 37.63-.87.5c-.4804877.2761424-.6461424.8895123-.37 1.37s.8895123.6461424 1.37.37l.87-.5c.4804877-.2761424.6461424-.8895123.37-1.37s-.8895123-.6461424-1.37-.37z" fill="#000000" data-original="#000000" style="" class=""/><path id="Shape" d="m47.19 18.5c-.1319512-.2314397-.350799-.4006596-.6079963-.4701217-.2571974-.069462-.53148-.0334233-.7620037.1001217l-.87.5c-.3979653.2253794-.5923112.6920274-.4719735 1.1332655s.5246877.7446054.9819735.7367345c.37 0 .55-.16 1.36-.63.2314397-.1319512.4006596-.350799.4701217-.6079963.069462-.2571974.0334233-.53148-.1001217-.7620037z" fill="#000000" data-original="#000000" style="" class=""/><path id="Shape" d="m20 44.59c-.2293087-.1343739-.5026768-.1719353-.7597298-.1043886-.257053.0675468-.4766422.2346444-.6102702.4643886l-.5.87c-.1789919.3100165-.1786145.6920638.0009896 1.001726.1796041.3096623.5110351.4996985.8690104.498274.3586848.001424.690659-.1893658.87-.5l.5-.87c.2713883-.4779792.1061364-1.0853915-.37-1.36z" fill="#000000" data-original="#000000" style="" class=""/><path id="Shape" d="m39.5 10.81c-.2305237-.133545-.5048063-.1695837-.7620037-.1001217-.2571973.0694621-.4760451.238682-.6079963.4701217l-.5.87c-.1789919.3100165-.1786145.6920638.0009896 1.001726.1796041.3096623.5110351.4996985.8690104.498274.3586848.001424.690659-.1893658.87-.5l.5-.87c.133545-.2305237.1695837-.5048063.1001217-.7620037-.0694621-.2571973-.238682-.4760451-.4701217-.6079963z" fill="#000000" data-original="#000000" style="" class=""/><path id="Shape" d="m56 36.3c3.3192227-12.2461169-2.011009-25.1935806-12.9899545-31.55340568-10.9789454-6.35982508-24.8621938-4.54224384-33.8339444 4.42950678-8.97175062 8.9717506-10.78933186 22.854999-4.42950678 33.8339444 6.35982508 10.9789455 19.30728878 16.3091772 31.55340568 12.9899545 3.3779486 4.1317263 8.8111169 5.9835728 14.0092799 4.7749367 5.198163-1.208636 9.2570208-5.2674938 10.4656568-10.4656568 1.2086361-5.198163-.6432104-10.6313313-4.7749367-14.0092799zm-53-7.3c-.02219589-10.0352437 5.73283889-19.18736187 14.7868813-23.51528552 9.0540425-4.32792365 19.7904884-3.05889961 27.5860283 3.2606072 7.7955398 6.31950682 11.2582757 16.56114502 8.8970904 26.31467832-.5852082-.3768235-1.1967894-.7110209-1.83-1 2.2486185-10.4089459-2.630637-21.0548715-11.983542-26.14659085-9.3529051-5.09171937-20.942537-3.41145232-28.4643512 4.12676705-7.52181411 7.5382194-9.17682747 19.1314846-4.0647435 28.4732744 5.112084 9.3417898 15.7686145 14.19784 26.1726367 11.9265494.2868704.6342639.6211511 1.2459976 1 1.83-7.745936 1.8694967-15.9214149.083827-22.1824665-4.8450445-6.26105169-4.9288715-9.91621714-12.4566093-9.9175335-20.4249555zm34.85 7.43-5.42-5.43c.6202696-1.0768346.7048196-2.3807923.2288055-3.5287111-.4760142-1.1479189-1.4585173-2.0093955-2.6588055-2.3312889v-11.14c0-.5522847-.4477153-1-1-1s-1 .4477153-1 1v11.14c-1.5552395.346601-2.7564387 1.5831958-3.0577404 3.1478425-.3013017 1.5646468.3547667 3.1588929 1.67007 4.05827 1.3153033.8993772 3.0389507.9323315 4.3876704.0838875l5.41 5.42c-3.0499281 3.4629681-4.1748144 8.2174872-3 12.68-9.5231578 1.9515004-19.1982003-2.5784659-23.79788928-11.1424457-4.59968896-8.5639797-3.03350439-19.1315768 3.85237448-25.9933229 6.8858789-6.86174618 17.4589094-8.39082023 26.0066878-3.76109307 8.5477783 4.62972717 13.0437494 14.32061397 11.058827 23.83686167-4.4558484-1.1873651-9.2103911-.0774718-12.68 2.96zm-8.85-9.43c1.1045695 0 2 .8954305 2 2s-.8954305 2-2 2-2-.8954305-2-2 .8954305-2 2-2zm18 32c-6.627417 0-12-5.372583-12-12s5.372583-12 12-12 12 5.372583 12 12c0 3.1825979-1.2642821 6.2348448-3.5147186 8.4852814-2.2504366 2.2504365-5.3026835 3.5147186-8.4852814 3.5147186z" fill="#000000" data-original="#000000" style="" class=""/><path id="Shape" d="m53.71 40.29c-.1877666-.1893127-.4433625-.2957983-.71-.2957983s-.5222334.1064856-.71.2957983l-12 12c-.2884599.2860905-.3751619.7182668-.219371 1.0934815.155791.3752147.5231059.6188811.929371.6165185.265803.0015368.5212812-.1028135.71-.29l12-12c.1893127-.1877666.2957983-.4433625.2957983-.71s-.1064856-.5222334-.2957983-.71z" fill="#000000" data-original="#000000" style="" class=""/><path id="Shape" d="m45 42c0-1.6568542-1.3431458-3-3-3s-3 1.3431458-3 3 1.3431458 3 3 3 3-1.3431458 3-3zm-4 0c0-.5522847.4477153-1 1-1s1 .4477153 1 1-.4477153 1-1 1-1-.4477153-1-1z" fill="#000000" data-original="#000000" style="" class=""/><path id="Shape" d="m52 49c-1.6568542 0-3 1.3431458-3 3s1.3431458 3 3 3 3-1.3431458 3-3-1.3431458-3-3-3zm0 4c-.5522847 0-1-.4477153-1-1s.4477153-1 1-1 1 .4477153 1 1-.4477153 1-1 1z" fill="#000000" data-original="#000000" style="" class=""/></g></g></g></svg>
