<?xml version="1.0"?>
<svg xmlns="http://www.w3.org/2000/svg" xmlns:xlink="http://www.w3.org/1999/xlink" xmlns:svgjs="http://svgjs.com/svgjs" version="1.1" width="512" height="512" x="0" y="0" viewBox="0 0 512.00026 512" style="enable-background:new 0 0 512 512" xml:space="preserve" class=""><g><path xmlns="http://www.w3.org/2000/svg" d="m327.328125 241.308594 83.816406-40.695313c14.914063-8.542969 33.867188-3.566406 42.421875 11.332031 8.542969 14.929688 0 31.074219-11.347656 42.421876 0 0-119.828125 92.945312-166.441406 92.945312-46.609375 0-206.445313-31.074219-206.445313-31.074219v-71.324219" fill="#fedbab" data-original="#fedbab" style="" class=""/><path xmlns="http://www.w3.org/2000/svg" d="m178.546875 278.417969h113.496094c18.777343 0 34-15.226563 34-34.003907 0-18.777343-15.222657-34-34-34h-85.542969c-11.265625-18.949218-31.941406-31.652343-55.589844-31.652343-.738281 0-1.472656.011719-2.207031.039062-27.679687.929688-51.003906 21.050781-57.082031 48.070313l-.800782 3.546875h-21.488281v48" fill="#fedbab" data-original="#fedbab" style="" class=""/><path xmlns="http://www.w3.org/2000/svg" d="m141.210938 288.417969c-.652344 0-1.3125-.070313-1.949219-.203125-.640625-.128906-1.273438-.316406-1.871094-.566406-.609375-.25-1.191406-.5625-1.730469-.921876-.550781-.359374-1.058594-.78125-1.519531-1.238281-.460937-.460937-.878906-.972656-1.242187-1.523437-.359376-.539063-.667969-1.117188-.917969-1.726563-.25-.601562-.441407-1.230469-.570313-1.871093-.128906-.640626-.199218-1.300782-.199218-1.949219 0-2.640625 1.070312-5.210938 2.929687-7.070313.460937-.460937.96875-.878906 1.519531-1.238281.542969-.371094 1.121094-.671875 1.730469-.921875.601563-.25 1.230469-.449219 1.871094-.578125 1.289062-.261719 2.609375-.261719 3.898437 0 .640625.128906 1.269532.328125 1.878906.578125.601563.25 1.183594.550781 1.722657.921875.550781.359375 1.058593.777344 1.519531 1.238281.460938.460938.878906.96875 1.238281 1.519532.371094.539062.671875 1.121093.921875 1.722656.25.609375.449219 1.238281.578125 1.878906.132813.640625.191407 1.300781.191407 1.949219 0 .648437-.058594 1.308593-.191407 1.949219-.128906.640624-.328125 1.269531-.578125 1.871093-.25.609375-.550781 1.1875-.921875 1.730469-.359375.546875-.777343 1.058594-1.238281 1.519531-.460938.460938-.96875.878907-1.519531 1.238281-.539063.359376-1.121094.671876-1.722657.921876-.609374.25-1.238281.4375-1.878906.570312-.640625.125-1.300781.199219-1.949218.199219zm0 0" fill="#000000" data-original="#000000" style="" class=""/><path xmlns="http://www.w3.org/2000/svg" d="m10 214.355469h59.332031v121.332031h-59.332031zm0 0" fill="#0082a0" data-original="#0082a0" style=""/><path xmlns="http://www.w3.org/2000/svg" d="m462.238281 206.964844c-11.171875-19.453125-36.113281-26.230469-55.75-15.210938l-73.792969 35.832032c-6.621093-15.9375-22.351562-27.171876-40.65625-27.171876h-80.117187c-13.898437-19.65625-36.769531-31.652343-61.011719-31.652343-.851562 0-1.695312.015625-2.542968.042969-30.550782 1.027343-56.859376 22.015624-65.410157 51.609374h-3.625v-6.0625c0-5.519531-4.476562-10-10-10h-59.332031c-5.523438 0-10 4.480469-10 10v121.335938c0 5.519531 4.476562 10 10 10h59.332031c5.523438 0 10-4.480469 10-10v-7.355469c38.28125 7.25 156.402344 28.980469 196.445313 28.980469 21.597656 0 56.316406-15.730469 106.144531-48.085938 35.722656-23.195312 66.121094-46.722656 66.425781-46.957031.332032-.257812.644532-.535156.941406-.832031 17.570313-17.566406 22.414063-37.925781 12.949219-54.472656zm-402.90625 118.722656h-39.332031v-101.332031h39.332031zm376.242188-78.820312c-33.027344 25.554687-124.554688 90.445312-159.796875 90.445312-39.199219 0-163.464844-23.082031-196.445313-29.339844v-67.554687h11.492188c4.675781 0 8.730469-3.246094 9.753906-7.808594l.796875-3.542969c5.164062-22.941406 24.765625-39.503906 47.660156-40.273437.625-.019531 1.25-.03125 1.875-.03125 19.175782 0 37.179688 10.257812 46.996094 26.761719 1.800781 3.03125 5.066406 4.890624 8.59375 4.890624h85.539062c13.234376 0 24.003907 10.769532 24.003907 24.003907 0 13.230469-10.769531 24-24.003907 24h-113.492187c-5.523437 0-10 4.476562-10 10 0 5.519531 4.476563 10 10 10h113.492187c22.964844 0 41.871094-17.679688 43.835938-40.140625l79.636719-38.667969c.203125-.101563.402343-.207031.601562-.316406 10.121094-5.800781 23.035157-2.375 28.777344 7.621093 6.597656 11.535157-3.964844 24.488282-9.316406 29.953126zm0 0" fill="#000000" data-original="#000000" style="" class=""/><path xmlns="http://www.w3.org/2000/svg" d="m346.445312 84.328125h-90.359374l21.632812-74.328125h47.09375zm0 0" fill="#ffd36c" data-original="#ffd36c" style="" class=""/><path xmlns="http://www.w3.org/2000/svg" d="m417.1875 10h-92.375l21.632812 74.328125h92.375zm0 0" fill="#f4b74a" data-original="#f4b74a" style=""/><path xmlns="http://www.w3.org/2000/svg" d="m409.625 158.65625h-90.359375l21.632813-74.328125h47.09375zm0 0" fill="#ffd36c" data-original="#ffd36c" style="" class=""/><path xmlns="http://www.w3.org/2000/svg" d="m480.367188 84.328125h-92.375l21.632812 74.328125h92.375zm0 0" fill="#f4b74a" data-original="#f4b74a" style=""/><path xmlns="http://www.w3.org/2000/svg" d="m283.265625 158.65625h-90.359375l21.632812-74.328125h47.09375zm0 0" fill="#ffd36c" data-original="#ffd36c" style="" class=""/><path xmlns="http://www.w3.org/2000/svg" d="m261.632812 84.328125 21.632813 74.328125h36l21.632813-74.328125zm0 0" fill="#f4b74a" data-original="#f4b74a" style=""/><path xmlns="http://www.w3.org/2000/svg" d="m511.601562 155.863281-21.632812-74.328125c-1.242188-4.269531-5.152344-7.207031-9.601562-7.207031h-34.042969l-19.535157-67.121094c-1.242187-4.269531-5.15625-7.207031-9.601562-7.207031h-139.46875c-4.445312 0-8.359375 2.9375-9.601562 7.207031l-19.535157 67.121094h-34.042969c-4.445312 0-8.359374 2.9375-9.601562 7.207031l-21.632812 74.328125c-.878907 3.023438-.285157 6.28125 1.605468 8.796875 1.886719 2.519532 4.851563 3.996094 7.996094 3.996094h309.09375c3.148438 0 6.109375-1.480469 7.996094-3.996094 1.890625-2.515625 2.484375-5.777344 1.605468-8.796875zm-101.917968-135.863281 15.8125 54.328125h-71.546875l-15.808594-54.328125zm-118.914063 128.65625-15.8125-54.328125h52.617188l-15.808594 54.328125zm-5.546875-128.65625h32.085938l15.8125 54.328125h-63.707032zm-63.179687 74.328125h32.085937l15.808594 54.328125h-63.707031zm110.550781 54.328125 15.808594-54.328125h32.085937l15.8125 54.328125zm84.535156 0-15.8125-54.328125h71.546875l15.8125 54.328125zm0 0" fill="#000000" data-original="#000000" style="" class=""/></g></svg>
