<?xml version="1.0"?>
<svg xmlns="http://www.w3.org/2000/svg" xmlns:xlink="http://www.w3.org/1999/xlink" xmlns:svgjs="http://svgjs.com/svgjs" version="1.1" width="512" height="512" x="0" y="0" viewBox="0 0 512 512" style="enable-background:new 0 0 512 512" xml:space="preserve" class=""><g>
<rect xmlns="http://www.w3.org/2000/svg" x="92" y="10" style="" width="328" height="492" fill="#ffd700" data-original="#efefef" class=""/>
<circle xmlns="http://www.w3.org/2000/svg" style="" cx="350" cy="432" r="30" fill="#ee3138" data-original="#69cbef" class=""/>
<path xmlns="http://www.w3.org/2000/svg" d="M420,0H92c-5.522,0-10,4.478-10,10v492c0,5.522,4.478,10,10,10h328c5.522,0,10-4.478,10-10V10C430,4.478,425.522,0,420,0z   M410,20v129.282H102V20H410z M102,492V169.282h308V492H102z" fill="#000000" data-original="#000000" style="" class=""/>
<path xmlns="http://www.w3.org/2000/svg" d="M310.148,127.391c1.77,1.277,3.815,1.893,5.843,1.893c3.104,0,6.163-1.44,8.117-4.149L341,101.729l16.892,23.405  c1.954,2.709,5.014,4.149,8.117,4.149c2.027,0,4.073-0.615,5.843-1.893c4.479-3.231,5.489-9.482,2.257-13.96l-20.777-28.789  l20.777-28.789c3.232-4.479,2.222-10.729-2.257-13.961c-4.477-3.231-10.729-2.224-13.96,2.257L341,67.554l-16.892-23.406  c-3.231-4.48-9.483-5.488-13.96-2.257c-4.479,3.231-5.489,9.482-2.257,13.961l20.777,28.789l-20.777,28.789  C304.659,117.908,305.67,124.159,310.148,127.391z" fill="#000000" data-original="#000000" style="" class=""/>
<path xmlns="http://www.w3.org/2000/svg" d="M214.026,128.459c5.069,2.195,10.957-0.135,13.15-5.203l3.73-8.615h34.186l3.73,8.615c1.634,3.773,5.315,6.029,9.182,6.029  c1.326,0,2.675-0.266,3.969-0.826c5.068-2.194,7.397-8.082,5.203-13.15l-30-69.282C255.593,42.368,251.986,40,248,40  s-7.593,2.368-9.177,6.026l-30,69.282C206.629,120.377,208.958,126.265,214.026,128.459z M248,75.166l8.433,19.475h-16.865  L248,75.166z" fill="#000000" data-original="#000000" style="" class=""/>
<path xmlns="http://www.w3.org/2000/svg" d="M146,60h20v59.282c0,5.522,4.478,10,10,10s10-4.478,10-10V60h20c5.522,0,10-4.478,10-10s-4.478-10-10-10h-60  c-5.522,0-10,4.478-10,10S140.478,60,146,60z" fill="#000000" data-original="#000000" style="" class=""/>
<path xmlns="http://www.w3.org/2000/svg" d="M380,189.282H152c-5.522,0-10,4.478-10,10s4.478,10,10,10h228c5.522,0,10-4.478,10-10S385.522,189.282,380,189.282z" fill="#000000" data-original="#000000" style="" class=""/>
<path xmlns="http://www.w3.org/2000/svg" d="M132,249.279c5.52,0,10-4.479,10-10c0-5.52-4.48-10-10-10c-5.521,0-10,4.48-10,10C122,244.8,126.479,249.279,132,249.279z" fill="#000000" data-original="#000000" style="" class=""/>
<path xmlns="http://www.w3.org/2000/svg" d="M222,239.279c0-5.52-4.48-10-10-10c-5.521,0-10,4.48-10,10c0,5.521,4.479,10,10,10C217.52,249.279,222,244.8,222,239.279z" fill="#000000" data-original="#000000" style="" class=""/>
<path xmlns="http://www.w3.org/2000/svg" d="M382,239.279c0-5.52-4.48-10-10-10c-5.521,0-10,4.48-10,10c0,5.521,4.479,10,10,10C377.52,249.279,382,244.8,382,239.279z" fill="#000000" data-original="#000000" style="" class=""/>
<path xmlns="http://www.w3.org/2000/svg" d="M182,239.279c0-5.52-4.48-10-10-10c-5.521,0-10,4.48-10,10c0,5.521,4.479,10,10,10C177.52,249.279,182,244.8,182,239.279z" fill="#000000" data-original="#000000" style="" class=""/>
<path xmlns="http://www.w3.org/2000/svg" d="M302,239.279c0-5.52-4.48-10-10-10c-5.521,0-10,4.48-10,10c0,5.521,4.479,10,10,10C297.52,249.279,302,244.8,302,239.279z" fill="#000000" data-original="#000000" style="" class=""/>
<path xmlns="http://www.w3.org/2000/svg" d="M262,239.279c0-5.52-4.48-10-10-10c-5.53,0-10,4.48-10,10c0,5.521,4.47,10,10,10C257.52,249.279,262,244.8,262,239.279z" fill="#000000" data-original="#000000" style="" class=""/>
<path xmlns="http://www.w3.org/2000/svg" d="M342,239.279c0-5.52-4.48-10-10-10c-5.521,0-10,4.48-10,10c0,5.521,4.479,10,10,10C337.52,249.279,342,244.8,342,239.279z" fill="#000000" data-original="#000000" style="" class=""/>
<path xmlns="http://www.w3.org/2000/svg" d="M380,269.282H132c-5.522,0-10,4.478-10,10s4.478,10,10,10h248c5.522,0,10-4.478,10-10S385.522,269.282,380,269.282z" fill="#000000" data-original="#000000" style="" class=""/>
<path xmlns="http://www.w3.org/2000/svg" d="M236,309.279c-5.521,0-10,4.49-10,10c0,5.521,4.479,10,10,10c5.51,0,10-4.479,10-10C246,313.77,241.51,309.279,236,309.279z  " fill="#000000" data-original="#000000" style="" class=""/>
<path xmlns="http://www.w3.org/2000/svg" d="M132,329.279h64c5.51,0,10-4.479,10-10c0-5.51-4.49-10-10-10h-64c-5.51,0-10,4.49-10,10  C122,324.8,126.49,329.279,132,329.279z" fill="#000000" data-original="#000000" style="" class=""/>
<path xmlns="http://www.w3.org/2000/svg" d="M236,349.279c-5.521,0-10,4.49-10,10c0,5.521,4.479,10,10,10c5.51,0,10-4.479,10-10C246,353.77,241.51,349.279,236,349.279z  " fill="#000000" data-original="#000000" style="" class=""/>
<path xmlns="http://www.w3.org/2000/svg" d="M132,369.279h64c5.51,0,10-4.479,10-10c0-5.51-4.49-10-10-10h-64c-5.51,0-10,4.49-10,10  C122,364.8,126.49,369.279,132,369.279z" fill="#000000" data-original="#000000" style="" class=""/>
<path xmlns="http://www.w3.org/2000/svg" d="M236,422H132c-5.522,0-10,4.478-10,10s4.478,10,10,10h104c5.522,0,10-4.478,10-10S241.522,422,236,422z" fill="#000000" data-original="#000000" style="" class=""/>
<path xmlns="http://www.w3.org/2000/svg" d="M380,309.279h-64c-5.51,0-10,4.49-10,10c0,5.521,4.49,10,10,10h64c5.51,0,10-4.479,10-10  C390,313.77,385.51,309.279,380,309.279z" fill="#000000" data-original="#000000" style="" class=""/>
<path xmlns="http://www.w3.org/2000/svg" d="M380,349.279h-64c-5.51,0-10,4.49-10,10c0,5.521,4.49,10,10,10h64c5.51,0,10-4.479,10-10  C390,353.77,385.51,349.279,380,349.279z" fill="#000000" data-original="#000000" style="" class=""/>
<path xmlns="http://www.w3.org/2000/svg" d="M350,392c-22.056,0-40,17.944-40,40s17.944,40,40,40s40-17.944,40-40S372.056,392,350,392z M350,452  c-11.028,0-20-8.972-20-20s8.972-20,20-20s20,8.972,20,20S361.028,452,350,452z" fill="#000000" data-original="#000000" style="" class=""/>
<g xmlns="http://www.w3.org/2000/svg">
</g>
<g xmlns="http://www.w3.org/2000/svg">
</g>
<g xmlns="http://www.w3.org/2000/svg">
</g>
<g xmlns="http://www.w3.org/2000/svg">
</g>
<g xmlns="http://www.w3.org/2000/svg">
</g>
<g xmlns="http://www.w3.org/2000/svg">
</g>
<g xmlns="http://www.w3.org/2000/svg">
</g>
<g xmlns="http://www.w3.org/2000/svg">
</g>
<g xmlns="http://www.w3.org/2000/svg">
</g>
<g xmlns="http://www.w3.org/2000/svg">
</g>
<g xmlns="http://www.w3.org/2000/svg">
</g>
<g xmlns="http://www.w3.org/2000/svg">
</g>
<g xmlns="http://www.w3.org/2000/svg">
</g>
<g xmlns="http://www.w3.org/2000/svg">
</g>
<g xmlns="http://www.w3.org/2000/svg">
</g>
</g></svg>
